<mxfile host="app.diagrams.net" agent="Mozilla/5.0 (Windows NT 10.0; Win64; x64) AppleWebKit/537.36 (KHTML, like Gecko) Chrome/132.0.0.0 Safari/537.36" version="26.0.13">
  <diagram id="n3TeTL5u4cYsSCTawJbM" name="Page-1">
    <mxGraphModel dx="4036" dy="3208" grid="0" gridSize="10" guides="1" tooltips="1" connect="1" arrows="1" fold="1" page="0" pageScale="1" pageWidth="850" pageHeight="1100" math="0" shadow="0">
      <root>
        <mxCell id="0" />
        <mxCell id="1" parent="0" />
        <mxCell id="xiRMoM4KiYWSZkbZJ28B-30" style="edgeStyle=none;curved=1;rounded=0;orthogonalLoop=1;jettySize=auto;html=1;fontSize=12;startSize=8;endSize=8;" parent="1" source="YhjwCGubdcu1pt6GsKbP-4" target="xiRMoM4KiYWSZkbZJ28B-21" edge="1">
          <mxGeometry relative="1" as="geometry" />
        </mxCell>
        <mxCell id="xiRMoM4KiYWSZkbZJ28B-38" style="edgeStyle=none;curved=1;rounded=0;orthogonalLoop=1;jettySize=auto;html=1;fontSize=12;startSize=8;endSize=8;" parent="1" source="YhjwCGubdcu1pt6GsKbP-31" target="xiRMoM4KiYWSZkbZJ28B-23" edge="1">
          <mxGeometry relative="1" as="geometry" />
        </mxCell>
        <mxCell id="xiRMoM4KiYWSZkbZJ28B-27" style="edgeStyle=none;curved=1;rounded=0;orthogonalLoop=1;jettySize=auto;html=1;fontSize=12;startSize=8;endSize=8;" parent="1" source="xiRMoM4KiYWSZkbZJ28B-19" target="YhjwCGubdcu1pt6GsKbP-4" edge="1">
          <mxGeometry relative="1" as="geometry">
            <Array as="points">
              <mxPoint x="52" y="-646" />
            </Array>
          </mxGeometry>
        </mxCell>
        <mxCell id="xiRMoM4KiYWSZkbZJ28B-37" style="edgeStyle=none;curved=1;rounded=0;orthogonalLoop=1;jettySize=auto;html=1;entryX=0;entryY=0.5;entryDx=0;entryDy=0;fontSize=12;startSize=8;endSize=8;" parent="1" target="xiRMoM4KiYWSZkbZJ28B-35" edge="1">
          <mxGeometry relative="1" as="geometry">
            <mxPoint x="369" y="185.4263093788063" as="sourcePoint" />
          </mxGeometry>
        </mxCell>
        <mxCell id="xiRMoM4KiYWSZkbZJ28B-33" style="edgeStyle=none;curved=1;rounded=0;orthogonalLoop=1;jettySize=auto;html=1;fontSize=12;startSize=8;endSize=8;" parent="1" target="xiRMoM4KiYWSZkbZJ28B-21" edge="1">
          <mxGeometry relative="1" as="geometry">
            <mxPoint x="369" y="164.00657030223374" as="sourcePoint" />
          </mxGeometry>
        </mxCell>
        <mxCell id="xiRMoM4KiYWSZkbZJ28B-25" style="edgeStyle=none;curved=1;rounded=0;orthogonalLoop=1;jettySize=auto;html=1;fontSize=12;startSize=8;endSize=8;" parent="1" source="YhjwCGubdcu1pt6GsKbP-1" target="xiRMoM4KiYWSZkbZJ28B-24" edge="1">
          <mxGeometry relative="1" as="geometry" />
        </mxCell>
        <mxCell id="S-aSxYtMyL_PIddF9y0v-4" style="edgeStyle=none;curved=1;rounded=0;orthogonalLoop=1;jettySize=auto;html=1;fontSize=12;startSize=8;endSize=8;" parent="1" source="YhjwCGubdcu1pt6GsKbP-1" target="S-aSxYtMyL_PIddF9y0v-1" edge="1">
          <mxGeometry relative="1" as="geometry" />
        </mxCell>
        <mxCell id="YhjwCGubdcu1pt6GsKbP-1" value="" style="rounded=1;whiteSpace=wrap;html=1;" parent="1" vertex="1">
          <mxGeometry x="-280" y="-336" width="1016" height="702" as="geometry" />
        </mxCell>
        <mxCell id="YhjwCGubdcu1pt6GsKbP-3" value="Lider" style="rounded=1;whiteSpace=wrap;html=1;" parent="1" vertex="1">
          <mxGeometry x="184.5" y="-237" width="152" height="87" as="geometry" />
        </mxCell>
        <mxCell id="YhjwCGubdcu1pt6GsKbP-4" value="" style="rounded=1;whiteSpace=wrap;html=1;" parent="1" vertex="1">
          <mxGeometry x="-234" y="-49" width="246" height="144" as="geometry" />
        </mxCell>
        <mxCell id="YhjwCGubdcu1pt6GsKbP-7" value="GPResearch" style="rounded=1;whiteSpace=wrap;html=1;" parent="1" vertex="1">
          <mxGeometry x="-228" y="51" width="67" height="28" as="geometry" />
        </mxCell>
        <mxCell id="YhjwCGubdcu1pt6GsKbP-8" value="Perplexity" style="rounded=1;whiteSpace=wrap;html=1;" parent="1" vertex="1">
          <mxGeometry x="-155" y="51" width="67" height="28" as="geometry" />
        </mxCell>
        <mxCell id="YhjwCGubdcu1pt6GsKbP-9" value="Gemini 2.0 Tool, google Search" style="rounded=1;whiteSpace=wrap;html=1;" parent="1" vertex="1">
          <mxGeometry x="-76.5" y="39" width="75" height="48" as="geometry" />
        </mxCell>
        <mxCell id="YhjwCGubdcu1pt6GsKbP-11" style="edgeStyle=none;curved=1;rounded=0;orthogonalLoop=1;jettySize=auto;html=1;fontSize=12;startSize=8;endSize=8;" parent="1" source="YhjwCGubdcu1pt6GsKbP-10" target="YhjwCGubdcu1pt6GsKbP-7" edge="1">
          <mxGeometry relative="1" as="geometry" />
        </mxCell>
        <mxCell id="YhjwCGubdcu1pt6GsKbP-12" style="edgeStyle=none;curved=1;rounded=0;orthogonalLoop=1;jettySize=auto;html=1;fontSize=12;startSize=8;endSize=8;" parent="1" source="YhjwCGubdcu1pt6GsKbP-10" target="YhjwCGubdcu1pt6GsKbP-8" edge="1">
          <mxGeometry relative="1" as="geometry" />
        </mxCell>
        <mxCell id="YhjwCGubdcu1pt6GsKbP-13" style="edgeStyle=none;curved=1;rounded=0;orthogonalLoop=1;jettySize=auto;html=1;fontSize=12;startSize=8;endSize=8;" parent="1" source="YhjwCGubdcu1pt6GsKbP-10" target="YhjwCGubdcu1pt6GsKbP-9" edge="1">
          <mxGeometry relative="1" as="geometry" />
        </mxCell>
        <mxCell id="YhjwCGubdcu1pt6GsKbP-10" value="Researcher" style="rounded=1;whiteSpace=wrap;html=1;" parent="1" vertex="1">
          <mxGeometry x="-159.5" y="-40" width="85" height="35" as="geometry" />
        </mxCell>
        <mxCell id="YhjwCGubdcu1pt6GsKbP-15" value="" style="rounded=1;whiteSpace=wrap;html=1;" parent="1" vertex="1">
          <mxGeometry x="139" y="-68" width="246" height="144" as="geometry" />
        </mxCell>
        <mxCell id="YhjwCGubdcu1pt6GsKbP-16" value="" style="rounded=1;whiteSpace=wrap;html=1;" parent="1" vertex="1">
          <mxGeometry x="151" y="35" width="67" height="28" as="geometry" />
        </mxCell>
        <mxCell id="YhjwCGubdcu1pt6GsKbP-17" value="" style="rounded=1;whiteSpace=wrap;html=1;" parent="1" vertex="1">
          <mxGeometry x="224" y="35" width="67" height="28" as="geometry" />
        </mxCell>
        <mxCell id="YhjwCGubdcu1pt6GsKbP-18" value="" style="rounded=1;whiteSpace=wrap;html=1;" parent="1" vertex="1">
          <mxGeometry x="298" y="35" width="67" height="28" as="geometry" />
        </mxCell>
        <mxCell id="YhjwCGubdcu1pt6GsKbP-19" style="edgeStyle=none;curved=1;rounded=0;orthogonalLoop=1;jettySize=auto;html=1;fontSize=12;startSize=8;endSize=8;" parent="1" source="YhjwCGubdcu1pt6GsKbP-22" target="YhjwCGubdcu1pt6GsKbP-16" edge="1">
          <mxGeometry relative="1" as="geometry" />
        </mxCell>
        <mxCell id="YhjwCGubdcu1pt6GsKbP-20" style="edgeStyle=none;curved=1;rounded=0;orthogonalLoop=1;jettySize=auto;html=1;fontSize=12;startSize=8;endSize=8;" parent="1" source="YhjwCGubdcu1pt6GsKbP-22" target="YhjwCGubdcu1pt6GsKbP-17" edge="1">
          <mxGeometry relative="1" as="geometry" />
        </mxCell>
        <mxCell id="YhjwCGubdcu1pt6GsKbP-21" style="edgeStyle=none;curved=1;rounded=0;orthogonalLoop=1;jettySize=auto;html=1;fontSize=12;startSize=8;endSize=8;" parent="1" source="YhjwCGubdcu1pt6GsKbP-22" target="YhjwCGubdcu1pt6GsKbP-18" edge="1">
          <mxGeometry relative="1" as="geometry" />
        </mxCell>
        <mxCell id="YhjwCGubdcu1pt6GsKbP-22" value="Planer" style="rounded=1;whiteSpace=wrap;html=1;" parent="1" vertex="1">
          <mxGeometry x="218" y="-56" width="85" height="35" as="geometry" />
        </mxCell>
        <mxCell id="YhjwCGubdcu1pt6GsKbP-23" value="" style="rounded=1;whiteSpace=wrap;html=1;" parent="1" vertex="1">
          <mxGeometry x="460.5" y="124" width="246" height="144" as="geometry" />
        </mxCell>
        <mxCell id="YhjwCGubdcu1pt6GsKbP-30" value="human-in-the-loop" style="rounded=1;whiteSpace=wrap;html=1;" parent="1" vertex="1">
          <mxGeometry x="541" y="135" width="85" height="35" as="geometry" />
        </mxCell>
        <mxCell id="YhjwCGubdcu1pt6GsKbP-53" style="edgeStyle=none;curved=1;rounded=0;orthogonalLoop=1;jettySize=auto;html=1;fontSize=12;startSize=8;endSize=8;" parent="1" source="YhjwCGubdcu1pt6GsKbP-31" target="YhjwCGubdcu1pt6GsKbP-23" edge="1">
          <mxGeometry relative="1" as="geometry" />
        </mxCell>
        <mxCell id="YhjwCGubdcu1pt6GsKbP-31" value="" style="rounded=1;whiteSpace=wrap;html=1;" parent="1" vertex="1">
          <mxGeometry x="459" y="-65" width="246" height="144" as="geometry" />
        </mxCell>
        <mxCell id="YhjwCGubdcu1pt6GsKbP-32" value="" style="rounded=1;whiteSpace=wrap;html=1;" parent="1" vertex="1">
          <mxGeometry x="477" y="33" width="67" height="28" as="geometry" />
        </mxCell>
        <mxCell id="YhjwCGubdcu1pt6GsKbP-33" value="" style="rounded=1;whiteSpace=wrap;html=1;" parent="1" vertex="1">
          <mxGeometry x="550" y="33" width="67" height="28" as="geometry" />
        </mxCell>
        <mxCell id="YhjwCGubdcu1pt6GsKbP-34" value="" style="rounded=1;whiteSpace=wrap;html=1;" parent="1" vertex="1">
          <mxGeometry x="624" y="33" width="67" height="28" as="geometry" />
        </mxCell>
        <mxCell id="YhjwCGubdcu1pt6GsKbP-35" style="edgeStyle=none;curved=1;rounded=0;orthogonalLoop=1;jettySize=auto;html=1;fontSize=12;startSize=8;endSize=8;" parent="1" source="YhjwCGubdcu1pt6GsKbP-38" target="YhjwCGubdcu1pt6GsKbP-32" edge="1">
          <mxGeometry relative="1" as="geometry" />
        </mxCell>
        <mxCell id="YhjwCGubdcu1pt6GsKbP-36" style="edgeStyle=none;curved=1;rounded=0;orthogonalLoop=1;jettySize=auto;html=1;fontSize=12;startSize=8;endSize=8;" parent="1" source="YhjwCGubdcu1pt6GsKbP-38" target="YhjwCGubdcu1pt6GsKbP-33" edge="1">
          <mxGeometry relative="1" as="geometry" />
        </mxCell>
        <mxCell id="YhjwCGubdcu1pt6GsKbP-37" style="edgeStyle=none;curved=1;rounded=0;orthogonalLoop=1;jettySize=auto;html=1;fontSize=12;startSize=8;endSize=8;" parent="1" source="YhjwCGubdcu1pt6GsKbP-38" target="YhjwCGubdcu1pt6GsKbP-34" edge="1">
          <mxGeometry relative="1" as="geometry" />
        </mxCell>
        <mxCell id="YhjwCGubdcu1pt6GsKbP-38" value="writer" style="rounded=1;whiteSpace=wrap;html=1;" parent="1" vertex="1">
          <mxGeometry x="544" y="-58" width="85" height="35" as="geometry" />
        </mxCell>
        <mxCell id="YhjwCGubdcu1pt6GsKbP-40" style="edgeStyle=none;curved=1;rounded=0;orthogonalLoop=1;jettySize=auto;html=1;fontSize=12;startSize=8;endSize=8;" parent="1" source="YhjwCGubdcu1pt6GsKbP-3" target="YhjwCGubdcu1pt6GsKbP-22" edge="1">
          <mxGeometry relative="1" as="geometry" />
        </mxCell>
        <mxCell id="YhjwCGubdcu1pt6GsKbP-41" value="" style="rounded=1;whiteSpace=wrap;html=1;" parent="1" vertex="1">
          <mxGeometry x="-241.5" y="135" width="246" height="144" as="geometry" />
        </mxCell>
        <mxCell id="YhjwCGubdcu1pt6GsKbP-42" value="" style="rounded=1;whiteSpace=wrap;html=1;" parent="1" vertex="1">
          <mxGeometry x="-223.5" y="233" width="67" height="28" as="geometry" />
        </mxCell>
        <mxCell id="YhjwCGubdcu1pt6GsKbP-43" value="" style="rounded=1;whiteSpace=wrap;html=1;" parent="1" vertex="1">
          <mxGeometry x="-150.5" y="233" width="67" height="28" as="geometry" />
        </mxCell>
        <mxCell id="YhjwCGubdcu1pt6GsKbP-44" value="" style="rounded=1;whiteSpace=wrap;html=1;" parent="1" vertex="1">
          <mxGeometry x="-76.5" y="233" width="67" height="28" as="geometry" />
        </mxCell>
        <mxCell id="YhjwCGubdcu1pt6GsKbP-45" style="edgeStyle=none;curved=1;rounded=0;orthogonalLoop=1;jettySize=auto;html=1;fontSize=12;startSize=8;endSize=8;" parent="1" source="YhjwCGubdcu1pt6GsKbP-48" target="YhjwCGubdcu1pt6GsKbP-42" edge="1">
          <mxGeometry relative="1" as="geometry" />
        </mxCell>
        <mxCell id="YhjwCGubdcu1pt6GsKbP-46" style="edgeStyle=none;curved=1;rounded=0;orthogonalLoop=1;jettySize=auto;html=1;fontSize=12;startSize=8;endSize=8;" parent="1" source="YhjwCGubdcu1pt6GsKbP-48" target="YhjwCGubdcu1pt6GsKbP-43" edge="1">
          <mxGeometry relative="1" as="geometry" />
        </mxCell>
        <mxCell id="YhjwCGubdcu1pt6GsKbP-47" style="edgeStyle=none;curved=1;rounded=0;orthogonalLoop=1;jettySize=auto;html=1;fontSize=12;startSize=8;endSize=8;" parent="1" source="YhjwCGubdcu1pt6GsKbP-48" target="YhjwCGubdcu1pt6GsKbP-44" edge="1">
          <mxGeometry relative="1" as="geometry" />
        </mxCell>
        <mxCell id="YhjwCGubdcu1pt6GsKbP-48" value="critico Researcher" style="rounded=1;whiteSpace=wrap;html=1;" parent="1" vertex="1">
          <mxGeometry x="-156.5" y="160" width="85" height="35" as="geometry" />
        </mxCell>
        <mxCell id="YhjwCGubdcu1pt6GsKbP-54" style="edgeStyle=none;curved=1;rounded=0;orthogonalLoop=1;jettySize=auto;html=1;fontSize=12;startSize=8;endSize=8;" parent="1" source="YhjwCGubdcu1pt6GsKbP-4" target="YhjwCGubdcu1pt6GsKbP-48" edge="1">
          <mxGeometry relative="1" as="geometry" />
        </mxCell>
        <mxCell id="Nb3t8JUNQJagsrladqpf-2" style="edgeStyle=none;curved=1;rounded=0;orthogonalLoop=1;jettySize=auto;html=1;fontSize=12;startSize=8;endSize=8;" parent="1" source="YhjwCGubdcu1pt6GsKbP-2" target="Nb3t8JUNQJagsrladqpf-1" edge="1">
          <mxGeometry relative="1" as="geometry" />
        </mxCell>
        <mxCell id="YhjwCGubdcu1pt6GsKbP-2" value="&lt;a style=&quot;text-decoration-line: none; -webkit-tap-highlight-color: rgba(0, 0, 0, 0.1); outline: 0px; font-family: Arial, sans-serif; font-size: small; text-align: left;&quot; data-ved=&quot;2ahUKEwiuiaHX2caKAxV9hIQIHR0uMXsQFnoECAwQAQ&quot; href=&quot;https://www.langchain.com/langgraph&quot;&gt;&lt;h3 style=&quot;font-weight: 400; margin: 18px 0px 3px; padding: 28px 0px 0px; font-size: 20px; line-height: 1.3; display: inline-block;&quot; class=&quot;LC20lb MBeuO Z3xoIb&quot;&gt;LangGraph&lt;/h3&gt;&lt;/a&gt;" style="text;html=1;align=center;verticalAlign=middle;whiteSpace=wrap;rounded=0;fontSize=16;" parent="1" vertex="1">
          <mxGeometry x="186" y="-232.5" width="155" height="78" as="geometry" />
        </mxCell>
        <mxCell id="YhjwCGubdcu1pt6GsKbP-55" value="Documentador" style="text;html=1;align=center;verticalAlign=middle;whiteSpace=wrap;rounded=0;fontSize=16;" parent="1" vertex="1">
          <mxGeometry x="232" y="-314" width="60" height="30" as="geometry" />
        </mxCell>
        <mxCell id="xiRMoM4KiYWSZkbZJ28B-2" value="&#xa;&lt;span style=&quot;color: rgb(0, 0, 0); font-family: Helvetica; font-size: 12px; font-style: normal; font-variant-ligatures: normal; font-variant-caps: normal; font-weight: 400; letter-spacing: normal; orphans: 2; text-align: center; text-indent: 0px; text-transform: none; widows: 2; word-spacing: 0px; -webkit-text-stroke-width: 0px; white-space: normal; background-color: rgb(255, 255, 255); text-decoration-thickness: initial; text-decoration-style: initial; text-decoration-color: initial; display: inline !important; float: none;&quot;&gt;Researcher&lt;/span&gt;&#xa;&#xa;" style="rounded=1;whiteSpace=wrap;html=1;" parent="1" vertex="1">
          <mxGeometry x="110" y="780" width="67" height="28" as="geometry" />
        </mxCell>
        <mxCell id="xiRMoM4KiYWSZkbZJ28B-3" value="&lt;br&gt;&lt;span style=&quot;color: rgb(0, 0, 0); background-color: rgb(255, 255, 255); float: none; display: inline !important;&quot;&gt;Researcher&lt;/span&gt;" style="rounded=1;whiteSpace=wrap;html=1;" parent="1" vertex="1">
          <mxGeometry x="183" y="780" width="67" height="28" as="geometry" />
        </mxCell>
        <mxCell id="xiRMoM4KiYWSZkbZJ28B-4" value="&lt;br&gt;&lt;span style=&quot;color: rgb(0, 0, 0); background-color: rgb(255, 255, 255); float: none; display: inline !important;&quot;&gt;Researcher&lt;/span&gt;" style="rounded=1;whiteSpace=wrap;html=1;" parent="1" vertex="1">
          <mxGeometry x="257" y="780" width="67" height="28" as="geometry" />
        </mxCell>
        <mxCell id="xiRMoM4KiYWSZkbZJ28B-5" style="edgeStyle=none;curved=1;rounded=0;orthogonalLoop=1;jettySize=auto;html=1;fontSize=12;startSize=8;endSize=8;" parent="1" source="xiRMoM4KiYWSZkbZJ28B-8" target="xiRMoM4KiYWSZkbZJ28B-2" edge="1">
          <mxGeometry relative="1" as="geometry" />
        </mxCell>
        <mxCell id="xiRMoM4KiYWSZkbZJ28B-6" style="edgeStyle=none;curved=1;rounded=0;orthogonalLoop=1;jettySize=auto;html=1;fontSize=12;startSize=8;endSize=8;" parent="1" source="xiRMoM4KiYWSZkbZJ28B-8" target="xiRMoM4KiYWSZkbZJ28B-3" edge="1">
          <mxGeometry relative="1" as="geometry" />
        </mxCell>
        <mxCell id="xiRMoM4KiYWSZkbZJ28B-7" style="edgeStyle=none;curved=1;rounded=0;orthogonalLoop=1;jettySize=auto;html=1;fontSize=12;startSize=8;endSize=8;" parent="1" source="xiRMoM4KiYWSZkbZJ28B-8" target="xiRMoM4KiYWSZkbZJ28B-4" edge="1">
          <mxGeometry relative="1" as="geometry" />
        </mxCell>
        <mxCell id="xiRMoM4KiYWSZkbZJ28B-8" value="Planer" style="rounded=1;whiteSpace=wrap;html=1;" parent="1" vertex="1">
          <mxGeometry x="177" y="689" width="85" height="35" as="geometry" />
        </mxCell>
        <mxCell id="xiRMoM4KiYWSZkbZJ28B-9" value="&lt;br&gt;&lt;span style=&quot;color: rgb(0, 0, 0); background-color: rgb(255, 255, 255); float: none; display: inline !important;&quot;&gt;Researcher&lt;/span&gt;" style="rounded=1;whiteSpace=wrap;html=1;" parent="1" vertex="1">
          <mxGeometry x="110" y="824" width="67" height="28" as="geometry" />
        </mxCell>
        <mxCell id="xiRMoM4KiYWSZkbZJ28B-10" value="&lt;br&gt;&lt;span style=&quot;color: rgb(0, 0, 0); background-color: rgb(255, 255, 255); float: none; display: inline !important;&quot;&gt;Researcher&lt;/span&gt;" style="rounded=1;whiteSpace=wrap;html=1;" parent="1" vertex="1">
          <mxGeometry x="186" y="822" width="67" height="28" as="geometry" />
        </mxCell>
        <mxCell id="xiRMoM4KiYWSZkbZJ28B-11" value="&lt;br&gt;&lt;span style=&quot;color: rgb(0, 0, 0); background-color: rgb(255, 255, 255); float: none; display: inline !important;&quot;&gt;Researcher&lt;/span&gt;" style="rounded=1;whiteSpace=wrap;html=1;" parent="1" vertex="1">
          <mxGeometry x="262" y="824" width="67" height="28" as="geometry" />
        </mxCell>
        <mxCell id="xiRMoM4KiYWSZkbZJ28B-13" style="edgeStyle=none;curved=1;rounded=0;orthogonalLoop=1;jettySize=auto;html=1;fontSize=12;startSize=8;endSize=8;" parent="1" source="xiRMoM4KiYWSZkbZJ28B-12" target="xiRMoM4KiYWSZkbZJ28B-8" edge="1">
          <mxGeometry relative="1" as="geometry" />
        </mxCell>
        <mxCell id="xiRMoM4KiYWSZkbZJ28B-12" value="Actor" style="shape=umlActor;verticalLabelPosition=bottom;verticalAlign=top;html=1;outlineConnect=0;" parent="1" vertex="1">
          <mxGeometry x="208" y="569" width="30" height="60" as="geometry" />
        </mxCell>
        <mxCell id="xiRMoM4KiYWSZkbZJ28B-14" value="AGUACATES" style="ellipse;shape=cloud;whiteSpace=wrap;html=1;" parent="1" vertex="1">
          <mxGeometry x="271.5" y="529" width="120" height="80" as="geometry" />
        </mxCell>
        <mxCell id="xiRMoM4KiYWSZkbZJ28B-15" value="lICORES" style="ellipse;shape=cloud;whiteSpace=wrap;html=1;" parent="1" vertex="1">
          <mxGeometry x="275" y="600" width="120" height="80" as="geometry" />
        </mxCell>
        <mxCell id="xiRMoM4KiYWSZkbZJ28B-16" value="Actor" style="shape=umlActor;verticalLabelPosition=bottom;verticalAlign=top;html=1;outlineConnect=0;" parent="1" vertex="1">
          <mxGeometry x="982" y="-336" width="44" height="72" as="geometry" />
        </mxCell>
        <mxCell id="xiRMoM4KiYWSZkbZJ28B-17" value="Actor" style="shape=umlActor;verticalLabelPosition=bottom;verticalAlign=top;html=1;outlineConnect=0;" parent="1" vertex="1">
          <mxGeometry x="992" y="276" width="30" height="60" as="geometry" />
        </mxCell>
        <mxCell id="xiRMoM4KiYWSZkbZJ28B-18" value="" style="rounded=0;whiteSpace=wrap;html=1;" parent="1" vertex="1">
          <mxGeometry x="956" y="-225" width="102" height="469" as="geometry" />
        </mxCell>
        <mxCell id="xiRMoM4KiYWSZkbZJ28B-19" value="A" style="rounded=1;whiteSpace=wrap;html=1;" parent="1" vertex="1">
          <mxGeometry x="947" y="-196" width="120" height="60" as="geometry" />
        </mxCell>
        <mxCell id="xiRMoM4KiYWSZkbZJ28B-21" value="B" style="rounded=1;whiteSpace=wrap;html=1;" parent="1" vertex="1">
          <mxGeometry x="949" y="-89" width="120" height="60" as="geometry" />
        </mxCell>
        <mxCell id="xiRMoM4KiYWSZkbZJ28B-22" value="C" style="rounded=1;whiteSpace=wrap;html=1;" parent="1" vertex="1">
          <mxGeometry x="831" y="33" width="120" height="60" as="geometry" />
        </mxCell>
        <mxCell id="xiRMoM4KiYWSZkbZJ28B-23" value="D" style="rounded=1;whiteSpace=wrap;html=1;" parent="1" vertex="1">
          <mxGeometry x="944" y="135" width="120" height="60" as="geometry" />
        </mxCell>
        <mxCell id="xiRMoM4KiYWSZkbZJ28B-26" style="edgeStyle=none;curved=1;rounded=0;orthogonalLoop=1;jettySize=auto;html=1;entryX=0;entryY=0.5;entryDx=0;entryDy=0;fontSize=12;startSize=8;endSize=8;" parent="1" source="xiRMoM4KiYWSZkbZJ28B-24" target="xiRMoM4KiYWSZkbZJ28B-19" edge="1">
          <mxGeometry relative="1" as="geometry" />
        </mxCell>
        <mxCell id="xiRMoM4KiYWSZkbZJ28B-24" value="" style="rounded=1;whiteSpace=wrap;html=1;" parent="1" vertex="1">
          <mxGeometry x="691" y="-588" width="120" height="60" as="geometry" />
        </mxCell>
        <mxCell id="xiRMoM4KiYWSZkbZJ28B-34" value="C" style="rounded=1;whiteSpace=wrap;html=1;" parent="1" vertex="1">
          <mxGeometry x="951" y="33" width="120" height="60" as="geometry" />
        </mxCell>
        <mxCell id="xiRMoM4KiYWSZkbZJ28B-35" value="C" style="rounded=1;whiteSpace=wrap;html=1;" parent="1" vertex="1">
          <mxGeometry x="1067" y="33" width="120" height="60" as="geometry" />
        </mxCell>
        <mxCell id="xiRMoM4KiYWSZkbZJ28B-36" style="edgeStyle=none;curved=1;rounded=0;orthogonalLoop=1;jettySize=auto;html=1;exitX=0.5;exitY=1;exitDx=0;exitDy=0;fontSize=12;startSize=8;endSize=8;" parent="1" source="xiRMoM4KiYWSZkbZJ28B-22" target="xiRMoM4KiYWSZkbZJ28B-22" edge="1">
          <mxGeometry relative="1" as="geometry" />
        </mxCell>
        <mxCell id="xiRMoM4KiYWSZkbZJ28B-42" value="" style="rounded=1;whiteSpace=wrap;html=1;" parent="1" vertex="1">
          <mxGeometry x="1334" y="-295" width="1016" height="702" as="geometry" />
        </mxCell>
        <mxCell id="xiRMoM4KiYWSZkbZJ28B-43" value="Lider" style="rounded=1;whiteSpace=wrap;html=1;" parent="1" vertex="1">
          <mxGeometry x="1798.5" y="-196" width="152" height="87" as="geometry" />
        </mxCell>
        <mxCell id="xiRMoM4KiYWSZkbZJ28B-45" value="" style="rounded=1;whiteSpace=wrap;html=1;" parent="1" vertex="1">
          <mxGeometry x="1376" y="-8" width="246" height="144" as="geometry" />
        </mxCell>
        <mxCell id="xiRMoM4KiYWSZkbZJ28B-46" value="GPResearch" style="rounded=1;whiteSpace=wrap;html=1;" parent="1" vertex="1">
          <mxGeometry x="1386" y="92" width="67" height="28" as="geometry" />
        </mxCell>
        <mxCell id="xiRMoM4KiYWSZkbZJ28B-47" value="Perplexity" style="rounded=1;whiteSpace=wrap;html=1;" parent="1" vertex="1">
          <mxGeometry x="1459" y="92" width="67" height="28" as="geometry" />
        </mxCell>
        <mxCell id="xiRMoM4KiYWSZkbZJ28B-48" value="Gemini 2.0 Tool, google Search" style="rounded=1;whiteSpace=wrap;html=1;" parent="1" vertex="1">
          <mxGeometry x="1537.5" y="80" width="75" height="48" as="geometry" />
        </mxCell>
        <mxCell id="xiRMoM4KiYWSZkbZJ28B-49" style="edgeStyle=none;curved=1;rounded=0;orthogonalLoop=1;jettySize=auto;html=1;fontSize=12;startSize=8;endSize=8;" parent="1" source="xiRMoM4KiYWSZkbZJ28B-52" target="xiRMoM4KiYWSZkbZJ28B-46" edge="1">
          <mxGeometry relative="1" as="geometry" />
        </mxCell>
        <mxCell id="xiRMoM4KiYWSZkbZJ28B-50" style="edgeStyle=none;curved=1;rounded=0;orthogonalLoop=1;jettySize=auto;html=1;fontSize=12;startSize=8;endSize=8;" parent="1" source="xiRMoM4KiYWSZkbZJ28B-52" target="xiRMoM4KiYWSZkbZJ28B-47" edge="1">
          <mxGeometry relative="1" as="geometry" />
        </mxCell>
        <mxCell id="xiRMoM4KiYWSZkbZJ28B-51" style="edgeStyle=none;curved=1;rounded=0;orthogonalLoop=1;jettySize=auto;html=1;fontSize=12;startSize=8;endSize=8;" parent="1" source="xiRMoM4KiYWSZkbZJ28B-52" target="xiRMoM4KiYWSZkbZJ28B-48" edge="1">
          <mxGeometry relative="1" as="geometry" />
        </mxCell>
        <mxCell id="xiRMoM4KiYWSZkbZJ28B-52" value="Researcher" style="rounded=1;whiteSpace=wrap;html=1;" parent="1" vertex="1">
          <mxGeometry x="1453" y="1" width="85" height="35" as="geometry" />
        </mxCell>
        <mxCell id="xiRMoM4KiYWSZkbZJ28B-53" value="" style="rounded=1;whiteSpace=wrap;html=1;" parent="1" vertex="1">
          <mxGeometry x="1748.5" y="-24" width="246" height="144" as="geometry" />
        </mxCell>
        <mxCell id="xiRMoM4KiYWSZkbZJ28B-54" value="" style="rounded=1;whiteSpace=wrap;html=1;" parent="1" vertex="1">
          <mxGeometry x="1765" y="76" width="67" height="28" as="geometry" />
        </mxCell>
        <mxCell id="xiRMoM4KiYWSZkbZJ28B-55" value="" style="rounded=1;whiteSpace=wrap;html=1;" parent="1" vertex="1">
          <mxGeometry x="1838" y="76" width="67" height="28" as="geometry" />
        </mxCell>
        <mxCell id="xiRMoM4KiYWSZkbZJ28B-56" value="" style="rounded=1;whiteSpace=wrap;html=1;" parent="1" vertex="1">
          <mxGeometry x="1912" y="76" width="67" height="28" as="geometry" />
        </mxCell>
        <mxCell id="xiRMoM4KiYWSZkbZJ28B-57" style="edgeStyle=none;curved=1;rounded=0;orthogonalLoop=1;jettySize=auto;html=1;fontSize=12;startSize=8;endSize=8;" parent="1" source="xiRMoM4KiYWSZkbZJ28B-60" target="xiRMoM4KiYWSZkbZJ28B-54" edge="1">
          <mxGeometry relative="1" as="geometry" />
        </mxCell>
        <mxCell id="xiRMoM4KiYWSZkbZJ28B-58" style="edgeStyle=none;curved=1;rounded=0;orthogonalLoop=1;jettySize=auto;html=1;fontSize=12;startSize=8;endSize=8;" parent="1" source="xiRMoM4KiYWSZkbZJ28B-60" target="xiRMoM4KiYWSZkbZJ28B-55" edge="1">
          <mxGeometry relative="1" as="geometry" />
        </mxCell>
        <mxCell id="xiRMoM4KiYWSZkbZJ28B-59" style="edgeStyle=none;curved=1;rounded=0;orthogonalLoop=1;jettySize=auto;html=1;fontSize=12;startSize=8;endSize=8;" parent="1" source="xiRMoM4KiYWSZkbZJ28B-60" target="xiRMoM4KiYWSZkbZJ28B-56" edge="1">
          <mxGeometry relative="1" as="geometry" />
        </mxCell>
        <mxCell id="xiRMoM4KiYWSZkbZJ28B-60" value="Planer" style="rounded=1;whiteSpace=wrap;html=1;" parent="1" vertex="1">
          <mxGeometry x="1832" y="-15" width="85" height="35" as="geometry" />
        </mxCell>
        <mxCell id="xiRMoM4KiYWSZkbZJ28B-61" value="" style="rounded=1;whiteSpace=wrap;html=1;" parent="1" vertex="1">
          <mxGeometry x="2074.5" y="165" width="246" height="144" as="geometry" />
        </mxCell>
        <mxCell id="xiRMoM4KiYWSZkbZJ28B-62" value="human-in-the-loop" style="rounded=1;whiteSpace=wrap;html=1;" parent="1" vertex="1">
          <mxGeometry x="2155" y="176" width="85" height="35" as="geometry" />
        </mxCell>
        <mxCell id="xiRMoM4KiYWSZkbZJ28B-63" style="edgeStyle=none;curved=1;rounded=0;orthogonalLoop=1;jettySize=auto;html=1;fontSize=12;startSize=8;endSize=8;" parent="1" source="xiRMoM4KiYWSZkbZJ28B-65" target="xiRMoM4KiYWSZkbZJ28B-61" edge="1">
          <mxGeometry relative="1" as="geometry" />
        </mxCell>
        <mxCell id="xiRMoM4KiYWSZkbZJ28B-65" value="" style="rounded=1;whiteSpace=wrap;html=1;" parent="1" vertex="1">
          <mxGeometry x="2073" y="-24" width="246" height="144" as="geometry" />
        </mxCell>
        <mxCell id="xiRMoM4KiYWSZkbZJ28B-66" value="" style="rounded=1;whiteSpace=wrap;html=1;" parent="1" vertex="1">
          <mxGeometry x="2091" y="74" width="67" height="28" as="geometry" />
        </mxCell>
        <mxCell id="xiRMoM4KiYWSZkbZJ28B-67" value="" style="rounded=1;whiteSpace=wrap;html=1;" parent="1" vertex="1">
          <mxGeometry x="2164" y="74" width="67" height="28" as="geometry" />
        </mxCell>
        <mxCell id="xiRMoM4KiYWSZkbZJ28B-68" value="" style="rounded=1;whiteSpace=wrap;html=1;" parent="1" vertex="1">
          <mxGeometry x="2238" y="74" width="67" height="28" as="geometry" />
        </mxCell>
        <mxCell id="xiRMoM4KiYWSZkbZJ28B-69" style="edgeStyle=none;curved=1;rounded=0;orthogonalLoop=1;jettySize=auto;html=1;fontSize=12;startSize=8;endSize=8;" parent="1" source="xiRMoM4KiYWSZkbZJ28B-72" target="xiRMoM4KiYWSZkbZJ28B-66" edge="1">
          <mxGeometry relative="1" as="geometry" />
        </mxCell>
        <mxCell id="xiRMoM4KiYWSZkbZJ28B-70" style="edgeStyle=none;curved=1;rounded=0;orthogonalLoop=1;jettySize=auto;html=1;fontSize=12;startSize=8;endSize=8;" parent="1" source="xiRMoM4KiYWSZkbZJ28B-72" target="xiRMoM4KiYWSZkbZJ28B-67" edge="1">
          <mxGeometry relative="1" as="geometry" />
        </mxCell>
        <mxCell id="xiRMoM4KiYWSZkbZJ28B-71" style="edgeStyle=none;curved=1;rounded=0;orthogonalLoop=1;jettySize=auto;html=1;fontSize=12;startSize=8;endSize=8;" parent="1" source="xiRMoM4KiYWSZkbZJ28B-72" target="xiRMoM4KiYWSZkbZJ28B-68" edge="1">
          <mxGeometry relative="1" as="geometry" />
        </mxCell>
        <mxCell id="xiRMoM4KiYWSZkbZJ28B-72" value="writer" style="rounded=1;whiteSpace=wrap;html=1;" parent="1" vertex="1">
          <mxGeometry x="2158" y="-17" width="85" height="35" as="geometry" />
        </mxCell>
        <mxCell id="xiRMoM4KiYWSZkbZJ28B-73" style="edgeStyle=none;curved=1;rounded=0;orthogonalLoop=1;jettySize=auto;html=1;fontSize=12;startSize=8;endSize=8;" parent="1" source="xiRMoM4KiYWSZkbZJ28B-43" target="xiRMoM4KiYWSZkbZJ28B-60" edge="1">
          <mxGeometry relative="1" as="geometry" />
        </mxCell>
        <mxCell id="xiRMoM4KiYWSZkbZJ28B-74" value="" style="rounded=1;whiteSpace=wrap;html=1;" parent="1" vertex="1">
          <mxGeometry x="1372.5" y="176" width="246" height="144" as="geometry" />
        </mxCell>
        <mxCell id="xiRMoM4KiYWSZkbZJ28B-75" value="" style="rounded=1;whiteSpace=wrap;html=1;" parent="1" vertex="1">
          <mxGeometry x="1390.5" y="274" width="67" height="28" as="geometry" />
        </mxCell>
        <mxCell id="xiRMoM4KiYWSZkbZJ28B-76" value="" style="rounded=1;whiteSpace=wrap;html=1;" parent="1" vertex="1">
          <mxGeometry x="1463.5" y="274" width="67" height="28" as="geometry" />
        </mxCell>
        <mxCell id="xiRMoM4KiYWSZkbZJ28B-77" value="" style="rounded=1;whiteSpace=wrap;html=1;" parent="1" vertex="1">
          <mxGeometry x="1537.5" y="274" width="67" height="28" as="geometry" />
        </mxCell>
        <mxCell id="xiRMoM4KiYWSZkbZJ28B-78" style="edgeStyle=none;curved=1;rounded=0;orthogonalLoop=1;jettySize=auto;html=1;fontSize=12;startSize=8;endSize=8;" parent="1" source="xiRMoM4KiYWSZkbZJ28B-81" target="xiRMoM4KiYWSZkbZJ28B-75" edge="1">
          <mxGeometry relative="1" as="geometry" />
        </mxCell>
        <mxCell id="xiRMoM4KiYWSZkbZJ28B-79" style="edgeStyle=none;curved=1;rounded=0;orthogonalLoop=1;jettySize=auto;html=1;fontSize=12;startSize=8;endSize=8;" parent="1" source="xiRMoM4KiYWSZkbZJ28B-81" target="xiRMoM4KiYWSZkbZJ28B-76" edge="1">
          <mxGeometry relative="1" as="geometry" />
        </mxCell>
        <mxCell id="xiRMoM4KiYWSZkbZJ28B-80" style="edgeStyle=none;curved=1;rounded=0;orthogonalLoop=1;jettySize=auto;html=1;fontSize=12;startSize=8;endSize=8;" parent="1" source="xiRMoM4KiYWSZkbZJ28B-81" target="xiRMoM4KiYWSZkbZJ28B-77" edge="1">
          <mxGeometry relative="1" as="geometry" />
        </mxCell>
        <mxCell id="xiRMoM4KiYWSZkbZJ28B-81" value="critico Researcher" style="rounded=1;whiteSpace=wrap;html=1;" parent="1" vertex="1">
          <mxGeometry x="1457.5" y="183" width="85" height="35" as="geometry" />
        </mxCell>
        <mxCell id="xiRMoM4KiYWSZkbZJ28B-82" style="edgeStyle=none;curved=1;rounded=0;orthogonalLoop=1;jettySize=auto;html=1;fontSize=12;startSize=8;endSize=8;" parent="1" source="xiRMoM4KiYWSZkbZJ28B-45" target="xiRMoM4KiYWSZkbZJ28B-81" edge="1">
          <mxGeometry relative="1" as="geometry" />
        </mxCell>
        <mxCell id="xiRMoM4KiYWSZkbZJ28B-83" value="&lt;a href=&quot;https://www.langchain.com/langgraph&quot; data-ved=&quot;2ahUKEwiuiaHX2caKAxV9hIQIHR0uMXsQFnoECAwQAQ&quot; style=&quot;text-decoration-line: none; -webkit-tap-highlight-color: rgba(0, 0, 0, 0.1); outline: 0px; font-family: Arial, sans-serif; font-size: small; text-align: left;&quot;&gt;&lt;h3 class=&quot;LC20lb MBeuO Z3xoIb&quot; style=&quot;font-weight: 400; margin: 18px 0px 3px; padding: 28px 0px 0px; font-size: 20px; line-height: 1.3; display: inline-block;&quot;&gt;LangGraph&lt;/h3&gt;&lt;/a&gt;" style="text;html=1;align=center;verticalAlign=middle;whiteSpace=wrap;rounded=0;fontSize=16;" parent="1" vertex="1">
          <mxGeometry x="1798.5" y="-187" width="155" height="78" as="geometry" />
        </mxCell>
        <mxCell id="xiRMoM4KiYWSZkbZJ28B-84" value="genrador" style="text;html=1;align=center;verticalAlign=middle;whiteSpace=wrap;rounded=0;fontSize=16;" parent="1" vertex="1">
          <mxGeometry x="1846" y="-273" width="60" height="30" as="geometry" />
        </mxCell>
        <mxCell id="xiRMoM4KiYWSZkbZJ28B-97" value="" style="rounded=1;whiteSpace=wrap;html=1;" parent="1" vertex="1">
          <mxGeometry x="1737" y="176" width="246" height="144" as="geometry" />
        </mxCell>
        <mxCell id="xiRMoM4KiYWSZkbZJ28B-98" value="Aente ideador" style="rounded=1;whiteSpace=wrap;html=1;" parent="1" vertex="1">
          <mxGeometry x="1817.5" y="187" width="85" height="35" as="geometry" />
        </mxCell>
        <mxCell id="Nb3t8JUNQJagsrladqpf-4" style="edgeStyle=none;curved=1;rounded=0;orthogonalLoop=1;jettySize=auto;html=1;fontSize=12;startSize=8;endSize=8;" parent="1" source="Nb3t8JUNQJagsrladqpf-1" target="YhjwCGubdcu1pt6GsKbP-2" edge="1">
          <mxGeometry relative="1" as="geometry">
            <Array as="points">
              <mxPoint x="35" y="-266" />
            </Array>
          </mxGeometry>
        </mxCell>
        <mxCell id="Nb3t8JUNQJagsrladqpf-1" value="" style="rounded=1;whiteSpace=wrap;html=1;" parent="1" vertex="1">
          <mxGeometry x="-372" y="-288" width="246" height="144" as="geometry" />
        </mxCell>
        <mxCell id="S-aSxYtMyL_PIddF9y0v-1" value="" style="rounded=1;whiteSpace=wrap;html=1;" parent="1" vertex="1">
          <mxGeometry x="-1574" y="-456" width="970" height="900" as="geometry" />
        </mxCell>
        <mxCell id="S-aSxYtMyL_PIddF9y0v-2" value="Text" style="text;html=1;align=center;verticalAlign=middle;whiteSpace=wrap;rounded=0;" parent="1" vertex="1">
          <mxGeometry x="-86" y="-109" width="60" height="30" as="geometry" />
        </mxCell>
        <mxCell id="S-aSxYtMyL_PIddF9y0v-3" value="CORE IVNESTIGADOR" style="text;html=1;align=center;verticalAlign=middle;whiteSpace=wrap;rounded=0;fontSize=16;" parent="1" vertex="1">
          <mxGeometry x="-1100" y="-501" width="60" height="30" as="geometry" />
        </mxCell>
        <mxCell id="Ij1GyV5aHeRKL5o0O3o6-1" value="" style="rounded=1;whiteSpace=wrap;html=1;" vertex="1" parent="1">
          <mxGeometry x="613" y="-1445.5" width="525" height="363" as="geometry" />
        </mxCell>
        <mxCell id="Ij1GyV5aHeRKL5o0O3o6-2" value="IA FIRST" style="text;html=1;align=center;verticalAlign=middle;whiteSpace=wrap;rounded=0;" vertex="1" parent="1">
          <mxGeometry x="853.5" y="-1443.5" width="60" height="30" as="geometry" />
        </mxCell>
        <mxCell id="Ij1GyV5aHeRKL5o0O3o6-3" value="" style="rounded=1;whiteSpace=wrap;html=1;" vertex="1" parent="1">
          <mxGeometry x="830" y="-1391.5" width="282" height="179" as="geometry" />
        </mxCell>
        <mxCell id="Ij1GyV5aHeRKL5o0O3o6-4" value="EXCELENTBE EXPERIENCIA AGENTICA/INTELIGENTE&lt;br&gt;&lt;br&gt;VIVO" style="text;html=1;align=center;verticalAlign=middle;whiteSpace=wrap;rounded=0;" vertex="1" parent="1">
          <mxGeometry x="850" y="-1327.5" width="112" height="53" as="geometry" />
        </mxCell>
        <mxCell id="Ij1GyV5aHeRKL5o0O3o6-5" value="&lt;br&gt;&lt;br&gt;BACK" style="rounded=1;whiteSpace=wrap;html=1;" vertex="1" parent="1">
          <mxGeometry x="995" y="-1280" width="100" height="49.5" as="geometry" />
        </mxCell>
        <mxCell id="Ij1GyV5aHeRKL5o0O3o6-125" style="edgeStyle=none;curved=1;rounded=0;orthogonalLoop=1;jettySize=auto;html=1;fontSize=12;startSize=8;endSize=8;" edge="1" parent="1" source="Ij1GyV5aHeRKL5o0O3o6-6" target="Ij1GyV5aHeRKL5o0O3o6-5">
          <mxGeometry relative="1" as="geometry" />
        </mxCell>
        <mxCell id="Ij1GyV5aHeRKL5o0O3o6-6" value="USER SECOND" style="text;html=1;align=center;verticalAlign=middle;whiteSpace=wrap;rounded=0;" vertex="1" parent="1">
          <mxGeometry x="924.5" y="-1383.5" width="60" height="30" as="geometry" />
        </mxCell>
        <mxCell id="Ij1GyV5aHeRKL5o0O3o6-7" value="" style="shape=process;whiteSpace=wrap;html=1;backgroundOutline=1;" vertex="1" parent="1">
          <mxGeometry x="493" y="-1306.5" width="120" height="60" as="geometry" />
        </mxCell>
        <mxCell id="Ij1GyV5aHeRKL5o0O3o6-52" value="" style="rounded=1;whiteSpace=wrap;html=1;" vertex="1" parent="1">
          <mxGeometry x="1261" y="-1623" width="1016" height="702" as="geometry" />
        </mxCell>
        <mxCell id="Ij1GyV5aHeRKL5o0O3o6-53" value="Lider" style="rounded=1;whiteSpace=wrap;html=1;" vertex="1" parent="1">
          <mxGeometry x="1725.5" y="-1524" width="152" height="87" as="geometry" />
        </mxCell>
        <mxCell id="Ij1GyV5aHeRKL5o0O3o6-54" value="" style="rounded=1;whiteSpace=wrap;html=1;" vertex="1" parent="1">
          <mxGeometry x="1307" y="-1336" width="246" height="144" as="geometry" />
        </mxCell>
        <mxCell id="Ij1GyV5aHeRKL5o0O3o6-55" value="GPResearch" style="rounded=1;whiteSpace=wrap;html=1;" vertex="1" parent="1">
          <mxGeometry x="1313" y="-1236" width="67" height="28" as="geometry" />
        </mxCell>
        <mxCell id="Ij1GyV5aHeRKL5o0O3o6-56" value="Perplexity" style="rounded=1;whiteSpace=wrap;html=1;" vertex="1" parent="1">
          <mxGeometry x="1386" y="-1236" width="67" height="28" as="geometry" />
        </mxCell>
        <mxCell id="Ij1GyV5aHeRKL5o0O3o6-57" value="Gemini 2.0 Tool, google Search" style="rounded=1;whiteSpace=wrap;html=1;" vertex="1" parent="1">
          <mxGeometry x="1464.5" y="-1248" width="75" height="48" as="geometry" />
        </mxCell>
        <mxCell id="Ij1GyV5aHeRKL5o0O3o6-58" style="edgeStyle=none;curved=1;rounded=0;orthogonalLoop=1;jettySize=auto;html=1;fontSize=12;startSize=8;endSize=8;" edge="1" parent="1" source="Ij1GyV5aHeRKL5o0O3o6-61" target="Ij1GyV5aHeRKL5o0O3o6-55">
          <mxGeometry relative="1" as="geometry" />
        </mxCell>
        <mxCell id="Ij1GyV5aHeRKL5o0O3o6-59" style="edgeStyle=none;curved=1;rounded=0;orthogonalLoop=1;jettySize=auto;html=1;fontSize=12;startSize=8;endSize=8;" edge="1" parent="1" source="Ij1GyV5aHeRKL5o0O3o6-61" target="Ij1GyV5aHeRKL5o0O3o6-56">
          <mxGeometry relative="1" as="geometry" />
        </mxCell>
        <mxCell id="Ij1GyV5aHeRKL5o0O3o6-60" style="edgeStyle=none;curved=1;rounded=0;orthogonalLoop=1;jettySize=auto;html=1;fontSize=12;startSize=8;endSize=8;" edge="1" parent="1" source="Ij1GyV5aHeRKL5o0O3o6-61" target="Ij1GyV5aHeRKL5o0O3o6-57">
          <mxGeometry relative="1" as="geometry" />
        </mxCell>
        <mxCell id="Ij1GyV5aHeRKL5o0O3o6-61" value="Planer" style="rounded=1;whiteSpace=wrap;html=1;" vertex="1" parent="1">
          <mxGeometry x="1381.5" y="-1327" width="85" height="35" as="geometry" />
        </mxCell>
        <mxCell id="Ij1GyV5aHeRKL5o0O3o6-97" style="edgeStyle=none;curved=1;rounded=0;orthogonalLoop=1;jettySize=auto;html=1;fontSize=12;startSize=8;endSize=8;" edge="1" parent="1" source="Ij1GyV5aHeRKL5o0O3o6-62" target="Ij1GyV5aHeRKL5o0O3o6-54">
          <mxGeometry relative="1" as="geometry" />
        </mxCell>
        <mxCell id="Ij1GyV5aHeRKL5o0O3o6-98" style="edgeStyle=none;curved=1;rounded=0;orthogonalLoop=1;jettySize=auto;html=1;fontSize=12;startSize=8;endSize=8;" edge="1" parent="1" source="Ij1GyV5aHeRKL5o0O3o6-62" target="Ij1GyV5aHeRKL5o0O3o6-82">
          <mxGeometry relative="1" as="geometry" />
        </mxCell>
        <mxCell id="Ij1GyV5aHeRKL5o0O3o6-99" style="edgeStyle=none;curved=1;rounded=0;orthogonalLoop=1;jettySize=auto;html=1;fontSize=12;startSize=8;endSize=8;" edge="1" parent="1" source="Ij1GyV5aHeRKL5o0O3o6-62" target="Ij1GyV5aHeRKL5o0O3o6-73">
          <mxGeometry relative="1" as="geometry" />
        </mxCell>
        <mxCell id="Ij1GyV5aHeRKL5o0O3o6-62" value="" style="rounded=1;whiteSpace=wrap;html=1;" vertex="1" parent="1">
          <mxGeometry x="1680" y="-1355" width="246" height="144" as="geometry" />
        </mxCell>
        <mxCell id="Ij1GyV5aHeRKL5o0O3o6-63" value="" style="rounded=1;whiteSpace=wrap;html=1;" vertex="1" parent="1">
          <mxGeometry x="1692" y="-1252" width="67" height="28" as="geometry" />
        </mxCell>
        <mxCell id="Ij1GyV5aHeRKL5o0O3o6-64" value="" style="rounded=1;whiteSpace=wrap;html=1;" vertex="1" parent="1">
          <mxGeometry x="1765" y="-1252" width="67" height="28" as="geometry" />
        </mxCell>
        <mxCell id="Ij1GyV5aHeRKL5o0O3o6-65" value="" style="rounded=1;whiteSpace=wrap;html=1;" vertex="1" parent="1">
          <mxGeometry x="1839" y="-1252" width="67" height="28" as="geometry" />
        </mxCell>
        <mxCell id="Ij1GyV5aHeRKL5o0O3o6-66" style="edgeStyle=none;curved=1;rounded=0;orthogonalLoop=1;jettySize=auto;html=1;fontSize=12;startSize=8;endSize=8;" edge="1" parent="1" source="Ij1GyV5aHeRKL5o0O3o6-69" target="Ij1GyV5aHeRKL5o0O3o6-63">
          <mxGeometry relative="1" as="geometry" />
        </mxCell>
        <mxCell id="Ij1GyV5aHeRKL5o0O3o6-67" style="edgeStyle=none;curved=1;rounded=0;orthogonalLoop=1;jettySize=auto;html=1;fontSize=12;startSize=8;endSize=8;" edge="1" parent="1" source="Ij1GyV5aHeRKL5o0O3o6-69" target="Ij1GyV5aHeRKL5o0O3o6-64">
          <mxGeometry relative="1" as="geometry" />
        </mxCell>
        <mxCell id="Ij1GyV5aHeRKL5o0O3o6-68" style="edgeStyle=none;curved=1;rounded=0;orthogonalLoop=1;jettySize=auto;html=1;fontSize=12;startSize=8;endSize=8;" edge="1" parent="1" source="Ij1GyV5aHeRKL5o0O3o6-69" target="Ij1GyV5aHeRKL5o0O3o6-65">
          <mxGeometry relative="1" as="geometry" />
        </mxCell>
        <mxCell id="Ij1GyV5aHeRKL5o0O3o6-69" value="Compiler" style="rounded=1;whiteSpace=wrap;html=1;" vertex="1" parent="1">
          <mxGeometry x="1759" y="-1343" width="85" height="35" as="geometry" />
        </mxCell>
        <mxCell id="Ij1GyV5aHeRKL5o0O3o6-73" value="" style="rounded=1;whiteSpace=wrap;html=1;" vertex="1" parent="1">
          <mxGeometry x="2000" y="-1352" width="246" height="144" as="geometry" />
        </mxCell>
        <mxCell id="Ij1GyV5aHeRKL5o0O3o6-74" value="" style="rounded=1;whiteSpace=wrap;html=1;" vertex="1" parent="1">
          <mxGeometry x="2018" y="-1254" width="67" height="28" as="geometry" />
        </mxCell>
        <mxCell id="Ij1GyV5aHeRKL5o0O3o6-75" value="" style="rounded=1;whiteSpace=wrap;html=1;" vertex="1" parent="1">
          <mxGeometry x="2091" y="-1254" width="67" height="28" as="geometry" />
        </mxCell>
        <mxCell id="Ij1GyV5aHeRKL5o0O3o6-76" value="" style="rounded=1;whiteSpace=wrap;html=1;" vertex="1" parent="1">
          <mxGeometry x="2165" y="-1254" width="67" height="28" as="geometry" />
        </mxCell>
        <mxCell id="Ij1GyV5aHeRKL5o0O3o6-77" style="edgeStyle=none;curved=1;rounded=0;orthogonalLoop=1;jettySize=auto;html=1;fontSize=12;startSize=8;endSize=8;" edge="1" parent="1" source="Ij1GyV5aHeRKL5o0O3o6-80" target="Ij1GyV5aHeRKL5o0O3o6-74">
          <mxGeometry relative="1" as="geometry" />
        </mxCell>
        <mxCell id="Ij1GyV5aHeRKL5o0O3o6-78" style="edgeStyle=none;curved=1;rounded=0;orthogonalLoop=1;jettySize=auto;html=1;fontSize=12;startSize=8;endSize=8;" edge="1" parent="1" source="Ij1GyV5aHeRKL5o0O3o6-80" target="Ij1GyV5aHeRKL5o0O3o6-75">
          <mxGeometry relative="1" as="geometry" />
        </mxCell>
        <mxCell id="Ij1GyV5aHeRKL5o0O3o6-79" style="edgeStyle=none;curved=1;rounded=0;orthogonalLoop=1;jettySize=auto;html=1;fontSize=12;startSize=8;endSize=8;" edge="1" parent="1" source="Ij1GyV5aHeRKL5o0O3o6-80" target="Ij1GyV5aHeRKL5o0O3o6-76">
          <mxGeometry relative="1" as="geometry" />
        </mxCell>
        <mxCell id="Ij1GyV5aHeRKL5o0O3o6-80" value="writer" style="rounded=1;whiteSpace=wrap;html=1;" vertex="1" parent="1">
          <mxGeometry x="2085" y="-1345" width="85" height="35" as="geometry" />
        </mxCell>
        <mxCell id="Ij1GyV5aHeRKL5o0O3o6-81" style="edgeStyle=none;curved=1;rounded=0;orthogonalLoop=1;jettySize=auto;html=1;fontSize=12;startSize=8;endSize=8;" edge="1" parent="1" source="Ij1GyV5aHeRKL5o0O3o6-53" target="Ij1GyV5aHeRKL5o0O3o6-69">
          <mxGeometry relative="1" as="geometry" />
        </mxCell>
        <mxCell id="Ij1GyV5aHeRKL5o0O3o6-82" value="" style="rounded=1;whiteSpace=wrap;html=1;" vertex="1" parent="1">
          <mxGeometry x="1299.5" y="-1152" width="246" height="144" as="geometry" />
        </mxCell>
        <mxCell id="Ij1GyV5aHeRKL5o0O3o6-83" value="" style="rounded=1;whiteSpace=wrap;html=1;" vertex="1" parent="1">
          <mxGeometry x="1317.5" y="-1054" width="67" height="28" as="geometry" />
        </mxCell>
        <mxCell id="Ij1GyV5aHeRKL5o0O3o6-84" value="" style="rounded=1;whiteSpace=wrap;html=1;" vertex="1" parent="1">
          <mxGeometry x="1390.5" y="-1054" width="67" height="28" as="geometry" />
        </mxCell>
        <mxCell id="Ij1GyV5aHeRKL5o0O3o6-85" value="" style="rounded=1;whiteSpace=wrap;html=1;" vertex="1" parent="1">
          <mxGeometry x="1464.5" y="-1054" width="67" height="28" as="geometry" />
        </mxCell>
        <mxCell id="Ij1GyV5aHeRKL5o0O3o6-86" style="edgeStyle=none;curved=1;rounded=0;orthogonalLoop=1;jettySize=auto;html=1;fontSize=12;startSize=8;endSize=8;" edge="1" parent="1" source="Ij1GyV5aHeRKL5o0O3o6-89" target="Ij1GyV5aHeRKL5o0O3o6-83">
          <mxGeometry relative="1" as="geometry" />
        </mxCell>
        <mxCell id="Ij1GyV5aHeRKL5o0O3o6-87" style="edgeStyle=none;curved=1;rounded=0;orthogonalLoop=1;jettySize=auto;html=1;fontSize=12;startSize=8;endSize=8;" edge="1" parent="1" source="Ij1GyV5aHeRKL5o0O3o6-89" target="Ij1GyV5aHeRKL5o0O3o6-84">
          <mxGeometry relative="1" as="geometry" />
        </mxCell>
        <mxCell id="Ij1GyV5aHeRKL5o0O3o6-88" style="edgeStyle=none;curved=1;rounded=0;orthogonalLoop=1;jettySize=auto;html=1;fontSize=12;startSize=8;endSize=8;" edge="1" parent="1" source="Ij1GyV5aHeRKL5o0O3o6-89" target="Ij1GyV5aHeRKL5o0O3o6-85">
          <mxGeometry relative="1" as="geometry" />
        </mxCell>
        <mxCell id="Ij1GyV5aHeRKL5o0O3o6-89" value="Reseacher" style="rounded=1;whiteSpace=wrap;html=1;" vertex="1" parent="1">
          <mxGeometry x="1384.5" y="-1127" width="85" height="35" as="geometry" />
        </mxCell>
        <mxCell id="Ij1GyV5aHeRKL5o0O3o6-90" style="edgeStyle=none;curved=1;rounded=0;orthogonalLoop=1;jettySize=auto;html=1;fontSize=12;startSize=8;endSize=8;" edge="1" parent="1" source="Ij1GyV5aHeRKL5o0O3o6-54" target="Ij1GyV5aHeRKL5o0O3o6-89">
          <mxGeometry relative="1" as="geometry" />
        </mxCell>
        <mxCell id="Ij1GyV5aHeRKL5o0O3o6-92" value="&lt;a href=&quot;https://www.langchain.com/langgraph&quot; data-ved=&quot;2ahUKEwiuiaHX2caKAxV9hIQIHR0uMXsQFnoECAwQAQ&quot; style=&quot;text-decoration-line: none; -webkit-tap-highlight-color: rgba(0, 0, 0, 0.1); outline: 0px; font-family: Arial, sans-serif; font-size: small; text-align: left;&quot;&gt;&lt;h3 class=&quot;LC20lb MBeuO Z3xoIb&quot; style=&quot;font-weight: 400; margin: 18px 0px 3px; padding: 28px 0px 0px; font-size: 20px; line-height: 1.3; display: inline-block;&quot;&gt;LangGraph&lt;/h3&gt;&lt;/a&gt;" style="text;html=1;align=center;verticalAlign=middle;whiteSpace=wrap;rounded=0;fontSize=16;" vertex="1" parent="1">
          <mxGeometry x="1727" y="-1519.5" width="155" height="78" as="geometry" />
        </mxCell>
        <mxCell id="Ij1GyV5aHeRKL5o0O3o6-93" value="AGENTE DOCUMENTADOR------- AGENCIA" style="text;html=1;align=center;verticalAlign=middle;whiteSpace=wrap;rounded=0;fontSize=16;" vertex="1" parent="1">
          <mxGeometry x="1675" y="-1598" width="292" height="63" as="geometry" />
        </mxCell>
        <mxCell id="Ij1GyV5aHeRKL5o0O3o6-112" style="edgeStyle=none;curved=1;rounded=0;orthogonalLoop=1;jettySize=auto;html=1;fontSize=12;startSize=8;endSize=8;" edge="1" parent="1" source="Ij1GyV5aHeRKL5o0O3o6-100" target="Ij1GyV5aHeRKL5o0O3o6-82">
          <mxGeometry relative="1" as="geometry" />
        </mxCell>
        <mxCell id="Ij1GyV5aHeRKL5o0O3o6-100" value="" style="rounded=1;whiteSpace=wrap;html=1;" vertex="1" parent="1">
          <mxGeometry x="1938" y="-1081" width="246" height="144" as="geometry" />
        </mxCell>
        <mxCell id="Ij1GyV5aHeRKL5o0O3o6-101" value="" style="rounded=1;whiteSpace=wrap;html=1;" vertex="1" parent="1">
          <mxGeometry x="1956" y="-983" width="67" height="28" as="geometry" />
        </mxCell>
        <mxCell id="Ij1GyV5aHeRKL5o0O3o6-102" value="" style="rounded=1;whiteSpace=wrap;html=1;" vertex="1" parent="1">
          <mxGeometry x="2029" y="-983" width="67" height="28" as="geometry" />
        </mxCell>
        <mxCell id="Ij1GyV5aHeRKL5o0O3o6-103" value="" style="rounded=1;whiteSpace=wrap;html=1;" vertex="1" parent="1">
          <mxGeometry x="2103" y="-983" width="67" height="28" as="geometry" />
        </mxCell>
        <mxCell id="Ij1GyV5aHeRKL5o0O3o6-104" style="edgeStyle=none;curved=1;rounded=0;orthogonalLoop=1;jettySize=auto;html=1;fontSize=12;startSize=8;endSize=8;" edge="1" parent="1" source="Ij1GyV5aHeRKL5o0O3o6-107" target="Ij1GyV5aHeRKL5o0O3o6-101">
          <mxGeometry relative="1" as="geometry" />
        </mxCell>
        <mxCell id="Ij1GyV5aHeRKL5o0O3o6-105" style="edgeStyle=none;curved=1;rounded=0;orthogonalLoop=1;jettySize=auto;html=1;fontSize=12;startSize=8;endSize=8;" edge="1" parent="1" source="Ij1GyV5aHeRKL5o0O3o6-107" target="Ij1GyV5aHeRKL5o0O3o6-102">
          <mxGeometry relative="1" as="geometry" />
        </mxCell>
        <mxCell id="Ij1GyV5aHeRKL5o0O3o6-106" style="edgeStyle=none;curved=1;rounded=0;orthogonalLoop=1;jettySize=auto;html=1;fontSize=12;startSize=8;endSize=8;" edge="1" parent="1" source="Ij1GyV5aHeRKL5o0O3o6-107" target="Ij1GyV5aHeRKL5o0O3o6-103">
          <mxGeometry relative="1" as="geometry" />
        </mxCell>
        <mxCell id="Ij1GyV5aHeRKL5o0O3o6-107" value="Revisor" style="rounded=1;whiteSpace=wrap;html=1;" vertex="1" parent="1">
          <mxGeometry x="2023" y="-1074" width="103" height="35" as="geometry" />
        </mxCell>
        <mxCell id="Ij1GyV5aHeRKL5o0O3o6-129" style="edgeStyle=none;curved=1;rounded=0;orthogonalLoop=1;jettySize=auto;html=1;entryX=1;entryY=0.5;entryDx=0;entryDy=0;fontSize=12;startSize=8;endSize=8;exitX=1;exitY=0.5;exitDx=0;exitDy=0;" edge="1" parent="1" source="Ij1GyV5aHeRKL5o0O3o6-109" target="Ij1GyV5aHeRKL5o0O3o6-110">
          <mxGeometry relative="1" as="geometry">
            <Array as="points">
              <mxPoint x="2099" y="-1810" />
            </Array>
          </mxGeometry>
        </mxCell>
        <mxCell id="Ij1GyV5aHeRKL5o0O3o6-134" style="edgeStyle=none;curved=1;rounded=0;orthogonalLoop=1;jettySize=auto;html=1;fontSize=12;startSize=8;endSize=8;" edge="1" parent="1" source="Ij1GyV5aHeRKL5o0O3o6-109" target="Ij1GyV5aHeRKL5o0O3o6-132">
          <mxGeometry relative="1" as="geometry" />
        </mxCell>
        <mxCell id="Ij1GyV5aHeRKL5o0O3o6-109" value="AGENCIA NIVEL 1" style="shape=process;whiteSpace=wrap;html=1;backgroundOutline=1;" vertex="1" parent="1">
          <mxGeometry x="1725" y="-1863" width="266" height="60" as="geometry" />
        </mxCell>
        <mxCell id="Ij1GyV5aHeRKL5o0O3o6-130" style="edgeStyle=none;curved=1;rounded=0;orthogonalLoop=1;jettySize=auto;html=1;fontSize=12;startSize=8;endSize=8;exitX=1;exitY=0.65;exitDx=0;exitDy=0;entryX=1;entryY=0.5;entryDx=0;entryDy=0;exitPerimeter=0;" edge="1" parent="1" source="Ij1GyV5aHeRKL5o0O3o6-110" target="Ij1GyV5aHeRKL5o0O3o6-111">
          <mxGeometry relative="1" as="geometry">
            <mxPoint x="1993" y="-1684" as="targetPoint" />
            <Array as="points">
              <mxPoint x="2114" y="-1725" />
            </Array>
          </mxGeometry>
        </mxCell>
        <mxCell id="Ij1GyV5aHeRKL5o0O3o6-110" value="AGENCIA NIVEL 2" style="shape=process;whiteSpace=wrap;html=1;backgroundOutline=1;" vertex="1" parent="1">
          <mxGeometry x="1725" y="-1788" width="266" height="60" as="geometry" />
        </mxCell>
        <mxCell id="Ij1GyV5aHeRKL5o0O3o6-111" value="AGENCIA NIVEL 3" style="shape=process;whiteSpace=wrap;html=1;backgroundOutline=1;" vertex="1" parent="1">
          <mxGeometry x="1725" y="-1711" width="266" height="60" as="geometry" />
        </mxCell>
        <mxCell id="Ij1GyV5aHeRKL5o0O3o6-113" style="edgeStyle=none;curved=1;rounded=0;orthogonalLoop=1;jettySize=auto;html=1;entryX=0.986;entryY=0.664;entryDx=0;entryDy=0;entryPerimeter=0;fontSize=12;startSize=8;endSize=8;" edge="1" parent="1" source="Ij1GyV5aHeRKL5o0O3o6-100" target="Ij1GyV5aHeRKL5o0O3o6-54">
          <mxGeometry relative="1" as="geometry" />
        </mxCell>
        <mxCell id="Ij1GyV5aHeRKL5o0O3o6-114" style="edgeStyle=none;curved=1;rounded=0;orthogonalLoop=1;jettySize=auto;html=1;entryX=0.435;entryY=1.001;entryDx=0;entryDy=0;entryPerimeter=0;fontSize=12;startSize=8;endSize=8;" edge="1" parent="1" source="Ij1GyV5aHeRKL5o0O3o6-100" target="Ij1GyV5aHeRKL5o0O3o6-73">
          <mxGeometry relative="1" as="geometry" />
        </mxCell>
        <mxCell id="Ij1GyV5aHeRKL5o0O3o6-115" value="QUE SERIA LO ESPERADO?" style="rounded=1;whiteSpace=wrap;html=1;" vertex="1" parent="1">
          <mxGeometry x="2177" y="-1072" width="120" height="60" as="geometry" />
        </mxCell>
        <mxCell id="Ij1GyV5aHeRKL5o0O3o6-116" value="AGENTE" style="text;html=1;align=center;verticalAlign=middle;whiteSpace=wrap;rounded=0;" vertex="1" parent="1">
          <mxGeometry x="1403.5" y="-1366" width="60" height="30" as="geometry" />
        </mxCell>
        <mxCell id="Ij1GyV5aHeRKL5o0O3o6-117" value="AGENTE" style="text;html=1;align=center;verticalAlign=middle;whiteSpace=wrap;rounded=0;" vertex="1" parent="1">
          <mxGeometry x="1822" y="-1389" width="60" height="30" as="geometry" />
        </mxCell>
        <mxCell id="Ij1GyV5aHeRKL5o0O3o6-118" value="AGENTE" style="text;html=1;align=center;verticalAlign=middle;whiteSpace=wrap;rounded=0;" vertex="1" parent="1">
          <mxGeometry x="2080" y="-1385" width="60" height="30" as="geometry" />
        </mxCell>
        <mxCell id="Ij1GyV5aHeRKL5o0O3o6-119" value="AGENTE" style="text;html=1;align=center;verticalAlign=middle;whiteSpace=wrap;rounded=0;" vertex="1" parent="1">
          <mxGeometry x="1320" y="-1182" width="60" height="30" as="geometry" />
        </mxCell>
        <mxCell id="Ij1GyV5aHeRKL5o0O3o6-120" value="QUE PASA SI EL REVISOR YUA NO SABE UE HACER?" style="rounded=1;whiteSpace=wrap;html=1;" vertex="1" parent="1">
          <mxGeometry x="2177" y="-1006" width="120" height="60" as="geometry" />
        </mxCell>
        <mxCell id="Ij1GyV5aHeRKL5o0O3o6-121" value="Actor" style="shape=umlActor;verticalLabelPosition=bottom;verticalAlign=top;html=1;outlineConnect=0;" vertex="1" parent="1">
          <mxGeometry x="1725" y="-910" width="30" height="60" as="geometry" />
        </mxCell>
        <mxCell id="Ij1GyV5aHeRKL5o0O3o6-122" style="edgeStyle=none;curved=1;rounded=0;orthogonalLoop=1;jettySize=auto;html=1;entryX=0.5;entryY=0;entryDx=0;entryDy=0;entryPerimeter=0;fontSize=12;startSize=8;endSize=8;" edge="1" parent="1" source="Ij1GyV5aHeRKL5o0O3o6-100" target="Ij1GyV5aHeRKL5o0O3o6-121">
          <mxGeometry relative="1" as="geometry" />
        </mxCell>
        <mxCell id="Ij1GyV5aHeRKL5o0O3o6-123" value="QUE EL REVISOR SEA EL USUARIO Y DETERMINE QUE ACCIONABLES DEBE TENER EN CUENTA PARA PODER EJECUTAR" style="rounded=1;whiteSpace=wrap;html=1;" vertex="1" parent="1">
          <mxGeometry x="2173.5" y="-923" width="147" height="109" as="geometry" />
        </mxCell>
        <mxCell id="Ij1GyV5aHeRKL5o0O3o6-124" style="edgeStyle=none;curved=1;rounded=0;orthogonalLoop=1;jettySize=auto;html=1;entryX=0.12;entryY=-0.049;entryDx=0;entryDy=0;entryPerimeter=0;fontSize=12;startSize=8;endSize=8;" edge="1" parent="1" source="Ij1GyV5aHeRKL5o0O3o6-2" target="Ij1GyV5aHeRKL5o0O3o6-6">
          <mxGeometry relative="1" as="geometry" />
        </mxCell>
        <mxCell id="Ij1GyV5aHeRKL5o0O3o6-132" value="SISTEMA 1" style="rounded=1;whiteSpace=wrap;html=1;" vertex="1" parent="1">
          <mxGeometry x="2746" y="-1855" width="120" height="60" as="geometry" />
        </mxCell>
        <mxCell id="Ij1GyV5aHeRKL5o0O3o6-133" value="SISTEMA 2" style="rounded=1;whiteSpace=wrap;html=1;" vertex="1" parent="1">
          <mxGeometry x="2746" y="-1753" width="120" height="60" as="geometry" />
        </mxCell>
        <mxCell id="Ij1GyV5aHeRKL5o0O3o6-135" style="edgeStyle=none;curved=1;rounded=0;orthogonalLoop=1;jettySize=auto;html=1;entryX=0.998;entryY=0.184;entryDx=0;entryDy=0;entryPerimeter=0;fontSize=12;startSize=8;endSize=8;" edge="1" parent="1" source="Ij1GyV5aHeRKL5o0O3o6-132" target="Ij1GyV5aHeRKL5o0O3o6-52">
          <mxGeometry relative="1" as="geometry" />
        </mxCell>
        <mxCell id="Ij1GyV5aHeRKL5o0O3o6-138" value="CRITICANDO" style="rounded=1;whiteSpace=wrap;html=1;" vertex="1" parent="1">
          <mxGeometry x="2014" y="-1141" width="120" height="60" as="geometry" />
        </mxCell>
        <mxCell id="Ij1GyV5aHeRKL5o0O3o6-139" value="human-in-the-loop" style="rounded=1;whiteSpace=wrap;html=1;" vertex="1" parent="1">
          <mxGeometry x="1266" y="-1327" width="85" height="35" as="geometry" />
        </mxCell>
        <mxCell id="Ij1GyV5aHeRKL5o0O3o6-140" value="human-in-the-loop" style="rounded=1;whiteSpace=wrap;html=1;" vertex="1" parent="1">
          <mxGeometry x="1627" y="-1343" width="85" height="35" as="geometry" />
        </mxCell>
        <mxCell id="Ij1GyV5aHeRKL5o0O3o6-141" value="human-in-the-loop" style="rounded=1;whiteSpace=wrap;html=1;" vertex="1" parent="1">
          <mxGeometry x="1961" y="-1348" width="85" height="35" as="geometry" />
        </mxCell>
        <mxCell id="Ij1GyV5aHeRKL5o0O3o6-142" value="human-in-the-loop" style="rounded=1;whiteSpace=wrap;html=1;" vertex="1" parent="1">
          <mxGeometry x="1242" y="-1141" width="85" height="35" as="geometry" />
        </mxCell>
        <mxCell id="Ij1GyV5aHeRKL5o0O3o6-148" style="edgeStyle=none;curved=1;rounded=0;orthogonalLoop=1;jettySize=auto;html=1;fontSize=12;startSize=8;endSize=8;" edge="1" parent="1" source="Ij1GyV5aHeRKL5o0O3o6-146" target="Ij1GyV5aHeRKL5o0O3o6-147">
          <mxGeometry relative="1" as="geometry" />
        </mxCell>
        <mxCell id="Ij1GyV5aHeRKL5o0O3o6-146" value="BORREGO" style="rounded=1;whiteSpace=wrap;html=1;" vertex="1" parent="1">
          <mxGeometry x="2498" y="-1314" width="120" height="60" as="geometry" />
        </mxCell>
        <mxCell id="Ij1GyV5aHeRKL5o0O3o6-345" style="edgeStyle=none;curved=1;rounded=0;orthogonalLoop=1;jettySize=auto;html=1;fontSize=12;startSize=8;endSize=8;" edge="1" parent="1" source="Ij1GyV5aHeRKL5o0O3o6-147" target="Ij1GyV5aHeRKL5o0O3o6-149">
          <mxGeometry relative="1" as="geometry" />
        </mxCell>
        <mxCell id="Ij1GyV5aHeRKL5o0O3o6-147" value="EFECTO REBAÑO" style="rounded=1;whiteSpace=wrap;html=1;" vertex="1" parent="1">
          <mxGeometry x="2690" y="-1314" width="120" height="60" as="geometry" />
        </mxCell>
        <mxCell id="Ij1GyV5aHeRKL5o0O3o6-149" value="Actor" style="shape=umlActor;verticalLabelPosition=bottom;verticalAlign=top;html=1;outlineConnect=0;" vertex="1" parent="1">
          <mxGeometry x="2936" y="-1362.75" width="30" height="60" as="geometry" />
        </mxCell>
        <mxCell id="Ij1GyV5aHeRKL5o0O3o6-150" value="Actor" style="shape=umlActor;verticalLabelPosition=bottom;verticalAlign=top;html=1;outlineConnect=0;" vertex="1" parent="1">
          <mxGeometry x="2946" y="-1352.75" width="30" height="60" as="geometry" />
        </mxCell>
        <mxCell id="Ij1GyV5aHeRKL5o0O3o6-151" value="Actor" style="shape=umlActor;verticalLabelPosition=bottom;verticalAlign=top;html=1;outlineConnect=0;" vertex="1" parent="1">
          <mxGeometry x="2956" y="-1342.75" width="30" height="60" as="geometry" />
        </mxCell>
        <mxCell id="Ij1GyV5aHeRKL5o0O3o6-152" value="Actor" style="shape=umlActor;verticalLabelPosition=bottom;verticalAlign=top;html=1;outlineConnect=0;" vertex="1" parent="1">
          <mxGeometry x="2966" y="-1332.75" width="30" height="60" as="geometry" />
        </mxCell>
        <mxCell id="Ij1GyV5aHeRKL5o0O3o6-153" value="Actor" style="shape=umlActor;verticalLabelPosition=bottom;verticalAlign=top;html=1;outlineConnect=0;" vertex="1" parent="1">
          <mxGeometry x="2976" y="-1322.75" width="30" height="60" as="geometry" />
        </mxCell>
        <mxCell id="Ij1GyV5aHeRKL5o0O3o6-154" value="Actor" style="shape=umlActor;verticalLabelPosition=bottom;verticalAlign=top;html=1;outlineConnect=0;" vertex="1" parent="1">
          <mxGeometry x="2986" y="-1312.75" width="30" height="60" as="geometry" />
        </mxCell>
        <mxCell id="Ij1GyV5aHeRKL5o0O3o6-155" value="Actor" style="shape=umlActor;verticalLabelPosition=bottom;verticalAlign=top;html=1;outlineConnect=0;" vertex="1" parent="1">
          <mxGeometry x="2996" y="-1302.75" width="30" height="60" as="geometry" />
        </mxCell>
        <mxCell id="Ij1GyV5aHeRKL5o0O3o6-156" value="Actor" style="shape=umlActor;verticalLabelPosition=bottom;verticalAlign=top;html=1;outlineConnect=0;" vertex="1" parent="1">
          <mxGeometry x="3006" y="-1292.75" width="30" height="60" as="geometry" />
        </mxCell>
        <mxCell id="Ij1GyV5aHeRKL5o0O3o6-157" value="Actor" style="shape=umlActor;verticalLabelPosition=bottom;verticalAlign=top;html=1;outlineConnect=0;" vertex="1" parent="1">
          <mxGeometry x="3016" y="-1282.75" width="30" height="60" as="geometry" />
        </mxCell>
        <mxCell id="Ij1GyV5aHeRKL5o0O3o6-158" value="Actor" style="shape=umlActor;verticalLabelPosition=bottom;verticalAlign=top;html=1;outlineConnect=0;" vertex="1" parent="1">
          <mxGeometry x="3026" y="-1272.75" width="30" height="60" as="geometry" />
        </mxCell>
        <mxCell id="Ij1GyV5aHeRKL5o0O3o6-159" value="Actor" style="shape=umlActor;verticalLabelPosition=bottom;verticalAlign=top;html=1;outlineConnect=0;" vertex="1" parent="1">
          <mxGeometry x="3036" y="-1262.75" width="30" height="60" as="geometry" />
        </mxCell>
        <mxCell id="Ij1GyV5aHeRKL5o0O3o6-160" value="Actor" style="shape=umlActor;verticalLabelPosition=bottom;verticalAlign=top;html=1;outlineConnect=0;" vertex="1" parent="1">
          <mxGeometry x="3046" y="-1252.75" width="30" height="60" as="geometry" />
        </mxCell>
        <mxCell id="Ij1GyV5aHeRKL5o0O3o6-161" value="Actor" style="shape=umlActor;verticalLabelPosition=bottom;verticalAlign=top;html=1;outlineConnect=0;" vertex="1" parent="1">
          <mxGeometry x="3056" y="-1242.75" width="30" height="60" as="geometry" />
        </mxCell>
        <mxCell id="Ij1GyV5aHeRKL5o0O3o6-162" value="Actor" style="shape=umlActor;verticalLabelPosition=bottom;verticalAlign=top;html=1;outlineConnect=0;" vertex="1" parent="1">
          <mxGeometry x="3066" y="-1232.75" width="30" height="60" as="geometry" />
        </mxCell>
        <mxCell id="Ij1GyV5aHeRKL5o0O3o6-163" value="Actor" style="shape=umlActor;verticalLabelPosition=bottom;verticalAlign=top;html=1;outlineConnect=0;" vertex="1" parent="1">
          <mxGeometry x="3001" y="-1372.75" width="30" height="60" as="geometry" />
        </mxCell>
        <mxCell id="Ij1GyV5aHeRKL5o0O3o6-164" value="Actor" style="shape=umlActor;verticalLabelPosition=bottom;verticalAlign=top;html=1;outlineConnect=0;" vertex="1" parent="1">
          <mxGeometry x="3011" y="-1362.75" width="30" height="60" as="geometry" />
        </mxCell>
        <mxCell id="Ij1GyV5aHeRKL5o0O3o6-165" value="Actor" style="shape=umlActor;verticalLabelPosition=bottom;verticalAlign=top;html=1;outlineConnect=0;" vertex="1" parent="1">
          <mxGeometry x="3021" y="-1352.75" width="30" height="60" as="geometry" />
        </mxCell>
        <mxCell id="Ij1GyV5aHeRKL5o0O3o6-166" value="Actor" style="shape=umlActor;verticalLabelPosition=bottom;verticalAlign=top;html=1;outlineConnect=0;" vertex="1" parent="1">
          <mxGeometry x="3031" y="-1342.75" width="30" height="60" as="geometry" />
        </mxCell>
        <mxCell id="Ij1GyV5aHeRKL5o0O3o6-167" value="Actor" style="shape=umlActor;verticalLabelPosition=bottom;verticalAlign=top;html=1;outlineConnect=0;" vertex="1" parent="1">
          <mxGeometry x="3041" y="-1332.75" width="30" height="60" as="geometry" />
        </mxCell>
        <mxCell id="Ij1GyV5aHeRKL5o0O3o6-168" value="Actor" style="shape=umlActor;verticalLabelPosition=bottom;verticalAlign=top;html=1;outlineConnect=0;" vertex="1" parent="1">
          <mxGeometry x="3051" y="-1322.75" width="30" height="60" as="geometry" />
        </mxCell>
        <mxCell id="Ij1GyV5aHeRKL5o0O3o6-169" value="Actor" style="shape=umlActor;verticalLabelPosition=bottom;verticalAlign=top;html=1;outlineConnect=0;" vertex="1" parent="1">
          <mxGeometry x="3061" y="-1312.75" width="30" height="60" as="geometry" />
        </mxCell>
        <mxCell id="Ij1GyV5aHeRKL5o0O3o6-170" value="Actor" style="shape=umlActor;verticalLabelPosition=bottom;verticalAlign=top;html=1;outlineConnect=0;" vertex="1" parent="1">
          <mxGeometry x="3071" y="-1302.75" width="30" height="60" as="geometry" />
        </mxCell>
        <mxCell id="Ij1GyV5aHeRKL5o0O3o6-171" value="Actor" style="shape=umlActor;verticalLabelPosition=bottom;verticalAlign=top;html=1;outlineConnect=0;" vertex="1" parent="1">
          <mxGeometry x="3081" y="-1292.75" width="30" height="60" as="geometry" />
        </mxCell>
        <mxCell id="Ij1GyV5aHeRKL5o0O3o6-172" value="Actor" style="shape=umlActor;verticalLabelPosition=bottom;verticalAlign=top;html=1;outlineConnect=0;" vertex="1" parent="1">
          <mxGeometry x="3091" y="-1282.75" width="30" height="60" as="geometry" />
        </mxCell>
        <mxCell id="Ij1GyV5aHeRKL5o0O3o6-173" value="Actor" style="shape=umlActor;verticalLabelPosition=bottom;verticalAlign=top;html=1;outlineConnect=0;" vertex="1" parent="1">
          <mxGeometry x="3101" y="-1272.75" width="30" height="60" as="geometry" />
        </mxCell>
        <mxCell id="Ij1GyV5aHeRKL5o0O3o6-174" value="Actor" style="shape=umlActor;verticalLabelPosition=bottom;verticalAlign=top;html=1;outlineConnect=0;" vertex="1" parent="1">
          <mxGeometry x="3111" y="-1262.75" width="30" height="60" as="geometry" />
        </mxCell>
        <mxCell id="Ij1GyV5aHeRKL5o0O3o6-175" value="Actor" style="shape=umlActor;verticalLabelPosition=bottom;verticalAlign=top;html=1;outlineConnect=0;" vertex="1" parent="1">
          <mxGeometry x="3121" y="-1252.75" width="30" height="60" as="geometry" />
        </mxCell>
        <mxCell id="Ij1GyV5aHeRKL5o0O3o6-176" value="Actor" style="shape=umlActor;verticalLabelPosition=bottom;verticalAlign=top;html=1;outlineConnect=0;" vertex="1" parent="1">
          <mxGeometry x="3131" y="-1242.75" width="30" height="60" as="geometry" />
        </mxCell>
        <mxCell id="Ij1GyV5aHeRKL5o0O3o6-177" value="Actor" style="shape=umlActor;verticalLabelPosition=bottom;verticalAlign=top;html=1;outlineConnect=0;" vertex="1" parent="1">
          <mxGeometry x="2956" y="-1342.75" width="30" height="60" as="geometry" />
        </mxCell>
        <mxCell id="Ij1GyV5aHeRKL5o0O3o6-178" value="Actor" style="shape=umlActor;verticalLabelPosition=bottom;verticalAlign=top;html=1;outlineConnect=0;" vertex="1" parent="1">
          <mxGeometry x="2966" y="-1332.75" width="30" height="60" as="geometry" />
        </mxCell>
        <mxCell id="Ij1GyV5aHeRKL5o0O3o6-179" value="Actor" style="shape=umlActor;verticalLabelPosition=bottom;verticalAlign=top;html=1;outlineConnect=0;" vertex="1" parent="1">
          <mxGeometry x="2976" y="-1322.75" width="30" height="60" as="geometry" />
        </mxCell>
        <mxCell id="Ij1GyV5aHeRKL5o0O3o6-180" value="Actor" style="shape=umlActor;verticalLabelPosition=bottom;verticalAlign=top;html=1;outlineConnect=0;" vertex="1" parent="1">
          <mxGeometry x="2986" y="-1312.75" width="30" height="60" as="geometry" />
        </mxCell>
        <mxCell id="Ij1GyV5aHeRKL5o0O3o6-181" value="Actor" style="shape=umlActor;verticalLabelPosition=bottom;verticalAlign=top;html=1;outlineConnect=0;" vertex="1" parent="1">
          <mxGeometry x="2996" y="-1302.75" width="30" height="60" as="geometry" />
        </mxCell>
        <mxCell id="Ij1GyV5aHeRKL5o0O3o6-182" value="Actor" style="shape=umlActor;verticalLabelPosition=bottom;verticalAlign=top;html=1;outlineConnect=0;" vertex="1" parent="1">
          <mxGeometry x="3006" y="-1292.75" width="30" height="60" as="geometry" />
        </mxCell>
        <mxCell id="Ij1GyV5aHeRKL5o0O3o6-183" value="Actor" style="shape=umlActor;verticalLabelPosition=bottom;verticalAlign=top;html=1;outlineConnect=0;" vertex="1" parent="1">
          <mxGeometry x="3016" y="-1282.75" width="30" height="60" as="geometry" />
        </mxCell>
        <mxCell id="Ij1GyV5aHeRKL5o0O3o6-184" value="Actor" style="shape=umlActor;verticalLabelPosition=bottom;verticalAlign=top;html=1;outlineConnect=0;" vertex="1" parent="1">
          <mxGeometry x="3026" y="-1272.75" width="30" height="60" as="geometry" />
        </mxCell>
        <mxCell id="Ij1GyV5aHeRKL5o0O3o6-185" value="Actor" style="shape=umlActor;verticalLabelPosition=bottom;verticalAlign=top;html=1;outlineConnect=0;" vertex="1" parent="1">
          <mxGeometry x="3036" y="-1262.75" width="30" height="60" as="geometry" />
        </mxCell>
        <mxCell id="Ij1GyV5aHeRKL5o0O3o6-186" value="Actor" style="shape=umlActor;verticalLabelPosition=bottom;verticalAlign=top;html=1;outlineConnect=0;" vertex="1" parent="1">
          <mxGeometry x="3046" y="-1252.75" width="30" height="60" as="geometry" />
        </mxCell>
        <mxCell id="Ij1GyV5aHeRKL5o0O3o6-187" value="Actor" style="shape=umlActor;verticalLabelPosition=bottom;verticalAlign=top;html=1;outlineConnect=0;" vertex="1" parent="1">
          <mxGeometry x="3056" y="-1242.75" width="30" height="60" as="geometry" />
        </mxCell>
        <mxCell id="Ij1GyV5aHeRKL5o0O3o6-188" value="Actor" style="shape=umlActor;verticalLabelPosition=bottom;verticalAlign=top;html=1;outlineConnect=0;" vertex="1" parent="1">
          <mxGeometry x="3066" y="-1232.75" width="30" height="60" as="geometry" />
        </mxCell>
        <mxCell id="Ij1GyV5aHeRKL5o0O3o6-189" value="Actor" style="shape=umlActor;verticalLabelPosition=bottom;verticalAlign=top;html=1;outlineConnect=0;" vertex="1" parent="1">
          <mxGeometry x="3076" y="-1222.75" width="30" height="60" as="geometry" />
        </mxCell>
        <mxCell id="Ij1GyV5aHeRKL5o0O3o6-190" value="Actor" style="shape=umlActor;verticalLabelPosition=bottom;verticalAlign=top;html=1;outlineConnect=0;" vertex="1" parent="1">
          <mxGeometry x="3086" y="-1212.75" width="30" height="60" as="geometry" />
        </mxCell>
        <mxCell id="Ij1GyV5aHeRKL5o0O3o6-219" value="Actor" style="shape=umlActor;verticalLabelPosition=bottom;verticalAlign=top;html=1;outlineConnect=0;" vertex="1" parent="1">
          <mxGeometry x="2946" y="-1352.75" width="30" height="60" as="geometry" />
        </mxCell>
        <mxCell id="Ij1GyV5aHeRKL5o0O3o6-220" value="Actor" style="shape=umlActor;verticalLabelPosition=bottom;verticalAlign=top;html=1;outlineConnect=0;" vertex="1" parent="1">
          <mxGeometry x="2956" y="-1342.75" width="30" height="60" as="geometry" />
        </mxCell>
        <mxCell id="Ij1GyV5aHeRKL5o0O3o6-221" value="Actor" style="shape=umlActor;verticalLabelPosition=bottom;verticalAlign=top;html=1;outlineConnect=0;" vertex="1" parent="1">
          <mxGeometry x="2966" y="-1332.75" width="30" height="60" as="geometry" />
        </mxCell>
        <mxCell id="Ij1GyV5aHeRKL5o0O3o6-222" value="Actor" style="shape=umlActor;verticalLabelPosition=bottom;verticalAlign=top;html=1;outlineConnect=0;" vertex="1" parent="1">
          <mxGeometry x="2976" y="-1322.75" width="30" height="60" as="geometry" />
        </mxCell>
        <mxCell id="Ij1GyV5aHeRKL5o0O3o6-223" value="Actor" style="shape=umlActor;verticalLabelPosition=bottom;verticalAlign=top;html=1;outlineConnect=0;" vertex="1" parent="1">
          <mxGeometry x="2986" y="-1312.75" width="30" height="60" as="geometry" />
        </mxCell>
        <mxCell id="Ij1GyV5aHeRKL5o0O3o6-224" value="Actor" style="shape=umlActor;verticalLabelPosition=bottom;verticalAlign=top;html=1;outlineConnect=0;" vertex="1" parent="1">
          <mxGeometry x="2996" y="-1302.75" width="30" height="60" as="geometry" />
        </mxCell>
        <mxCell id="Ij1GyV5aHeRKL5o0O3o6-225" value="Actor" style="shape=umlActor;verticalLabelPosition=bottom;verticalAlign=top;html=1;outlineConnect=0;" vertex="1" parent="1">
          <mxGeometry x="3006" y="-1292.75" width="30" height="60" as="geometry" />
        </mxCell>
        <mxCell id="Ij1GyV5aHeRKL5o0O3o6-226" value="Actor" style="shape=umlActor;verticalLabelPosition=bottom;verticalAlign=top;html=1;outlineConnect=0;" vertex="1" parent="1">
          <mxGeometry x="3016" y="-1282.75" width="30" height="60" as="geometry" />
        </mxCell>
        <mxCell id="Ij1GyV5aHeRKL5o0O3o6-227" value="Actor" style="shape=umlActor;verticalLabelPosition=bottom;verticalAlign=top;html=1;outlineConnect=0;" vertex="1" parent="1">
          <mxGeometry x="3026" y="-1272.75" width="30" height="60" as="geometry" />
        </mxCell>
        <mxCell id="Ij1GyV5aHeRKL5o0O3o6-228" value="Actor" style="shape=umlActor;verticalLabelPosition=bottom;verticalAlign=top;html=1;outlineConnect=0;" vertex="1" parent="1">
          <mxGeometry x="3036" y="-1262.75" width="30" height="60" as="geometry" />
        </mxCell>
        <mxCell id="Ij1GyV5aHeRKL5o0O3o6-229" value="Actor" style="shape=umlActor;verticalLabelPosition=bottom;verticalAlign=top;html=1;outlineConnect=0;" vertex="1" parent="1">
          <mxGeometry x="3046" y="-1252.75" width="30" height="60" as="geometry" />
        </mxCell>
        <mxCell id="Ij1GyV5aHeRKL5o0O3o6-230" value="Actor" style="shape=umlActor;verticalLabelPosition=bottom;verticalAlign=top;html=1;outlineConnect=0;" vertex="1" parent="1">
          <mxGeometry x="3056" y="-1242.75" width="30" height="60" as="geometry" />
        </mxCell>
        <mxCell id="Ij1GyV5aHeRKL5o0O3o6-231" value="Actor" style="shape=umlActor;verticalLabelPosition=bottom;verticalAlign=top;html=1;outlineConnect=0;" vertex="1" parent="1">
          <mxGeometry x="3066" y="-1232.75" width="30" height="60" as="geometry" />
        </mxCell>
        <mxCell id="Ij1GyV5aHeRKL5o0O3o6-232" value="Actor" style="shape=umlActor;verticalLabelPosition=bottom;verticalAlign=top;html=1;outlineConnect=0;" vertex="1" parent="1">
          <mxGeometry x="3076" y="-1222.75" width="30" height="60" as="geometry" />
        </mxCell>
        <mxCell id="Ij1GyV5aHeRKL5o0O3o6-233" value="Actor" style="shape=umlActor;verticalLabelPosition=bottom;verticalAlign=top;html=1;outlineConnect=0;" vertex="1" parent="1">
          <mxGeometry x="3011" y="-1362.75" width="30" height="60" as="geometry" />
        </mxCell>
        <mxCell id="Ij1GyV5aHeRKL5o0O3o6-234" value="Actor" style="shape=umlActor;verticalLabelPosition=bottom;verticalAlign=top;html=1;outlineConnect=0;" vertex="1" parent="1">
          <mxGeometry x="3021" y="-1352.75" width="30" height="60" as="geometry" />
        </mxCell>
        <mxCell id="Ij1GyV5aHeRKL5o0O3o6-235" value="Actor" style="shape=umlActor;verticalLabelPosition=bottom;verticalAlign=top;html=1;outlineConnect=0;" vertex="1" parent="1">
          <mxGeometry x="3031" y="-1342.75" width="30" height="60" as="geometry" />
        </mxCell>
        <mxCell id="Ij1GyV5aHeRKL5o0O3o6-236" value="Actor" style="shape=umlActor;verticalLabelPosition=bottom;verticalAlign=top;html=1;outlineConnect=0;" vertex="1" parent="1">
          <mxGeometry x="3041" y="-1332.75" width="30" height="60" as="geometry" />
        </mxCell>
        <mxCell id="Ij1GyV5aHeRKL5o0O3o6-237" value="Actor" style="shape=umlActor;verticalLabelPosition=bottom;verticalAlign=top;html=1;outlineConnect=0;" vertex="1" parent="1">
          <mxGeometry x="3051" y="-1322.75" width="30" height="60" as="geometry" />
        </mxCell>
        <mxCell id="Ij1GyV5aHeRKL5o0O3o6-238" value="Actor" style="shape=umlActor;verticalLabelPosition=bottom;verticalAlign=top;html=1;outlineConnect=0;" vertex="1" parent="1">
          <mxGeometry x="3061" y="-1312.75" width="30" height="60" as="geometry" />
        </mxCell>
        <mxCell id="Ij1GyV5aHeRKL5o0O3o6-239" value="Actor" style="shape=umlActor;verticalLabelPosition=bottom;verticalAlign=top;html=1;outlineConnect=0;" vertex="1" parent="1">
          <mxGeometry x="3071" y="-1302.75" width="30" height="60" as="geometry" />
        </mxCell>
        <mxCell id="Ij1GyV5aHeRKL5o0O3o6-240" value="Actor" style="shape=umlActor;verticalLabelPosition=bottom;verticalAlign=top;html=1;outlineConnect=0;" vertex="1" parent="1">
          <mxGeometry x="3081" y="-1292.75" width="30" height="60" as="geometry" />
        </mxCell>
        <mxCell id="Ij1GyV5aHeRKL5o0O3o6-241" value="Actor" style="shape=umlActor;verticalLabelPosition=bottom;verticalAlign=top;html=1;outlineConnect=0;" vertex="1" parent="1">
          <mxGeometry x="3091" y="-1282.75" width="30" height="60" as="geometry" />
        </mxCell>
        <mxCell id="Ij1GyV5aHeRKL5o0O3o6-242" value="Actor" style="shape=umlActor;verticalLabelPosition=bottom;verticalAlign=top;html=1;outlineConnect=0;" vertex="1" parent="1">
          <mxGeometry x="3101" y="-1272.75" width="30" height="60" as="geometry" />
        </mxCell>
        <mxCell id="Ij1GyV5aHeRKL5o0O3o6-243" value="Actor" style="shape=umlActor;verticalLabelPosition=bottom;verticalAlign=top;html=1;outlineConnect=0;" vertex="1" parent="1">
          <mxGeometry x="3111" y="-1262.75" width="30" height="60" as="geometry" />
        </mxCell>
        <mxCell id="Ij1GyV5aHeRKL5o0O3o6-244" value="Actor" style="shape=umlActor;verticalLabelPosition=bottom;verticalAlign=top;html=1;outlineConnect=0;" vertex="1" parent="1">
          <mxGeometry x="3121" y="-1252.75" width="30" height="60" as="geometry" />
        </mxCell>
        <mxCell id="Ij1GyV5aHeRKL5o0O3o6-245" value="Actor" style="shape=umlActor;verticalLabelPosition=bottom;verticalAlign=top;html=1;outlineConnect=0;" vertex="1" parent="1">
          <mxGeometry x="3131" y="-1242.75" width="30" height="60" as="geometry" />
        </mxCell>
        <mxCell id="Ij1GyV5aHeRKL5o0O3o6-246" value="Actor" style="shape=umlActor;verticalLabelPosition=bottom;verticalAlign=top;html=1;outlineConnect=0;" vertex="1" parent="1">
          <mxGeometry x="3141" y="-1232.75" width="30" height="60" as="geometry" />
        </mxCell>
        <mxCell id="Ij1GyV5aHeRKL5o0O3o6-247" value="Actor" style="shape=umlActor;verticalLabelPosition=bottom;verticalAlign=top;html=1;outlineConnect=0;" vertex="1" parent="1">
          <mxGeometry x="2966" y="-1332.75" width="30" height="60" as="geometry" />
        </mxCell>
        <mxCell id="Ij1GyV5aHeRKL5o0O3o6-248" value="Actor" style="shape=umlActor;verticalLabelPosition=bottom;verticalAlign=top;html=1;outlineConnect=0;" vertex="1" parent="1">
          <mxGeometry x="2976" y="-1322.75" width="30" height="60" as="geometry" />
        </mxCell>
        <mxCell id="Ij1GyV5aHeRKL5o0O3o6-249" value="Actor" style="shape=umlActor;verticalLabelPosition=bottom;verticalAlign=top;html=1;outlineConnect=0;" vertex="1" parent="1">
          <mxGeometry x="2986" y="-1312.75" width="30" height="60" as="geometry" />
        </mxCell>
        <mxCell id="Ij1GyV5aHeRKL5o0O3o6-250" value="Actor" style="shape=umlActor;verticalLabelPosition=bottom;verticalAlign=top;html=1;outlineConnect=0;" vertex="1" parent="1">
          <mxGeometry x="2996" y="-1302.75" width="30" height="60" as="geometry" />
        </mxCell>
        <mxCell id="Ij1GyV5aHeRKL5o0O3o6-251" value="Actor" style="shape=umlActor;verticalLabelPosition=bottom;verticalAlign=top;html=1;outlineConnect=0;" vertex="1" parent="1">
          <mxGeometry x="3006" y="-1292.75" width="30" height="60" as="geometry" />
        </mxCell>
        <mxCell id="Ij1GyV5aHeRKL5o0O3o6-252" value="Actor" style="shape=umlActor;verticalLabelPosition=bottom;verticalAlign=top;html=1;outlineConnect=0;" vertex="1" parent="1">
          <mxGeometry x="3016" y="-1282.75" width="30" height="60" as="geometry" />
        </mxCell>
        <mxCell id="Ij1GyV5aHeRKL5o0O3o6-253" value="Actor" style="shape=umlActor;verticalLabelPosition=bottom;verticalAlign=top;html=1;outlineConnect=0;" vertex="1" parent="1">
          <mxGeometry x="3026" y="-1272.75" width="30" height="60" as="geometry" />
        </mxCell>
        <mxCell id="Ij1GyV5aHeRKL5o0O3o6-254" value="Actor" style="shape=umlActor;verticalLabelPosition=bottom;verticalAlign=top;html=1;outlineConnect=0;" vertex="1" parent="1">
          <mxGeometry x="3036" y="-1262.75" width="30" height="60" as="geometry" />
        </mxCell>
        <mxCell id="Ij1GyV5aHeRKL5o0O3o6-255" value="Actor" style="shape=umlActor;verticalLabelPosition=bottom;verticalAlign=top;html=1;outlineConnect=0;" vertex="1" parent="1">
          <mxGeometry x="3046" y="-1252.75" width="30" height="60" as="geometry" />
        </mxCell>
        <mxCell id="Ij1GyV5aHeRKL5o0O3o6-256" value="Actor" style="shape=umlActor;verticalLabelPosition=bottom;verticalAlign=top;html=1;outlineConnect=0;" vertex="1" parent="1">
          <mxGeometry x="3056" y="-1242.75" width="30" height="60" as="geometry" />
        </mxCell>
        <mxCell id="Ij1GyV5aHeRKL5o0O3o6-257" value="Actor" style="shape=umlActor;verticalLabelPosition=bottom;verticalAlign=top;html=1;outlineConnect=0;" vertex="1" parent="1">
          <mxGeometry x="3066" y="-1232.75" width="30" height="60" as="geometry" />
        </mxCell>
        <mxCell id="Ij1GyV5aHeRKL5o0O3o6-258" value="Actor" style="shape=umlActor;verticalLabelPosition=bottom;verticalAlign=top;html=1;outlineConnect=0;" vertex="1" parent="1">
          <mxGeometry x="3076" y="-1222.75" width="30" height="60" as="geometry" />
        </mxCell>
        <mxCell id="Ij1GyV5aHeRKL5o0O3o6-259" value="Actor" style="shape=umlActor;verticalLabelPosition=bottom;verticalAlign=top;html=1;outlineConnect=0;" vertex="1" parent="1">
          <mxGeometry x="3086" y="-1212.75" width="30" height="60" as="geometry" />
        </mxCell>
        <mxCell id="Ij1GyV5aHeRKL5o0O3o6-260" value="Actor" style="shape=umlActor;verticalLabelPosition=bottom;verticalAlign=top;html=1;outlineConnect=0;" vertex="1" parent="1">
          <mxGeometry x="3096" y="-1202.75" width="30" height="60" as="geometry" />
        </mxCell>
        <mxCell id="Ij1GyV5aHeRKL5o0O3o6-261" value="Actor" style="shape=umlActor;verticalLabelPosition=bottom;verticalAlign=top;html=1;outlineConnect=0;" vertex="1" parent="1">
          <mxGeometry x="3126" y="-1357.75" width="30" height="60" as="geometry" />
        </mxCell>
        <mxCell id="Ij1GyV5aHeRKL5o0O3o6-262" value="Actor" style="shape=umlActor;verticalLabelPosition=bottom;verticalAlign=top;html=1;outlineConnect=0;" vertex="1" parent="1">
          <mxGeometry x="3136" y="-1347.75" width="30" height="60" as="geometry" />
        </mxCell>
        <mxCell id="Ij1GyV5aHeRKL5o0O3o6-263" value="Actor" style="shape=umlActor;verticalLabelPosition=bottom;verticalAlign=top;html=1;outlineConnect=0;" vertex="1" parent="1">
          <mxGeometry x="3146" y="-1337.75" width="30" height="60" as="geometry" />
        </mxCell>
        <mxCell id="Ij1GyV5aHeRKL5o0O3o6-264" value="Actor" style="shape=umlActor;verticalLabelPosition=bottom;verticalAlign=top;html=1;outlineConnect=0;" vertex="1" parent="1">
          <mxGeometry x="3156" y="-1327.75" width="30" height="60" as="geometry" />
        </mxCell>
        <mxCell id="Ij1GyV5aHeRKL5o0O3o6-265" value="Actor" style="shape=umlActor;verticalLabelPosition=bottom;verticalAlign=top;html=1;outlineConnect=0;" vertex="1" parent="1">
          <mxGeometry x="3166" y="-1317.75" width="30" height="60" as="geometry" />
        </mxCell>
        <mxCell id="Ij1GyV5aHeRKL5o0O3o6-266" value="Actor" style="shape=umlActor;verticalLabelPosition=bottom;verticalAlign=top;html=1;outlineConnect=0;" vertex="1" parent="1">
          <mxGeometry x="3176" y="-1307.75" width="30" height="60" as="geometry" />
        </mxCell>
        <mxCell id="Ij1GyV5aHeRKL5o0O3o6-267" value="Actor" style="shape=umlActor;verticalLabelPosition=bottom;verticalAlign=top;html=1;outlineConnect=0;" vertex="1" parent="1">
          <mxGeometry x="3186" y="-1297.75" width="30" height="60" as="geometry" />
        </mxCell>
        <mxCell id="Ij1GyV5aHeRKL5o0O3o6-268" value="Actor" style="shape=umlActor;verticalLabelPosition=bottom;verticalAlign=top;html=1;outlineConnect=0;" vertex="1" parent="1">
          <mxGeometry x="3196" y="-1287.75" width="30" height="60" as="geometry" />
        </mxCell>
        <mxCell id="Ij1GyV5aHeRKL5o0O3o6-269" value="Actor" style="shape=umlActor;verticalLabelPosition=bottom;verticalAlign=top;html=1;outlineConnect=0;" vertex="1" parent="1">
          <mxGeometry x="3206" y="-1277.75" width="30" height="60" as="geometry" />
        </mxCell>
        <mxCell id="Ij1GyV5aHeRKL5o0O3o6-270" value="Actor" style="shape=umlActor;verticalLabelPosition=bottom;verticalAlign=top;html=1;outlineConnect=0;" vertex="1" parent="1">
          <mxGeometry x="3216" y="-1267.75" width="30" height="60" as="geometry" />
        </mxCell>
        <mxCell id="Ij1GyV5aHeRKL5o0O3o6-271" value="Actor" style="shape=umlActor;verticalLabelPosition=bottom;verticalAlign=top;html=1;outlineConnect=0;" vertex="1" parent="1">
          <mxGeometry x="3226" y="-1257.75" width="30" height="60" as="geometry" />
        </mxCell>
        <mxCell id="Ij1GyV5aHeRKL5o0O3o6-272" value="Actor" style="shape=umlActor;verticalLabelPosition=bottom;verticalAlign=top;html=1;outlineConnect=0;" vertex="1" parent="1">
          <mxGeometry x="3236" y="-1247.75" width="30" height="60" as="geometry" />
        </mxCell>
        <mxCell id="Ij1GyV5aHeRKL5o0O3o6-273" value="Actor" style="shape=umlActor;verticalLabelPosition=bottom;verticalAlign=top;html=1;outlineConnect=0;" vertex="1" parent="1">
          <mxGeometry x="3246" y="-1237.75" width="30" height="60" as="geometry" />
        </mxCell>
        <mxCell id="Ij1GyV5aHeRKL5o0O3o6-274" value="Actor" style="shape=umlActor;verticalLabelPosition=bottom;verticalAlign=top;html=1;outlineConnect=0;" vertex="1" parent="1">
          <mxGeometry x="3256" y="-1227.75" width="30" height="60" as="geometry" />
        </mxCell>
        <mxCell id="Ij1GyV5aHeRKL5o0O3o6-275" value="Actor" style="shape=umlActor;verticalLabelPosition=bottom;verticalAlign=top;html=1;outlineConnect=0;" vertex="1" parent="1">
          <mxGeometry x="3191" y="-1367.75" width="30" height="60" as="geometry" />
        </mxCell>
        <mxCell id="Ij1GyV5aHeRKL5o0O3o6-276" value="Actor" style="shape=umlActor;verticalLabelPosition=bottom;verticalAlign=top;html=1;outlineConnect=0;" vertex="1" parent="1">
          <mxGeometry x="3201" y="-1357.75" width="30" height="60" as="geometry" />
        </mxCell>
        <mxCell id="Ij1GyV5aHeRKL5o0O3o6-277" value="Actor" style="shape=umlActor;verticalLabelPosition=bottom;verticalAlign=top;html=1;outlineConnect=0;" vertex="1" parent="1">
          <mxGeometry x="3211" y="-1347.75" width="30" height="60" as="geometry" />
        </mxCell>
        <mxCell id="Ij1GyV5aHeRKL5o0O3o6-278" value="Actor" style="shape=umlActor;verticalLabelPosition=bottom;verticalAlign=top;html=1;outlineConnect=0;" vertex="1" parent="1">
          <mxGeometry x="3221" y="-1337.75" width="30" height="60" as="geometry" />
        </mxCell>
        <mxCell id="Ij1GyV5aHeRKL5o0O3o6-279" value="Actor" style="shape=umlActor;verticalLabelPosition=bottom;verticalAlign=top;html=1;outlineConnect=0;" vertex="1" parent="1">
          <mxGeometry x="3231" y="-1327.75" width="30" height="60" as="geometry" />
        </mxCell>
        <mxCell id="Ij1GyV5aHeRKL5o0O3o6-280" value="Actor" style="shape=umlActor;verticalLabelPosition=bottom;verticalAlign=top;html=1;outlineConnect=0;" vertex="1" parent="1">
          <mxGeometry x="3241" y="-1317.75" width="30" height="60" as="geometry" />
        </mxCell>
        <mxCell id="Ij1GyV5aHeRKL5o0O3o6-281" value="Actor" style="shape=umlActor;verticalLabelPosition=bottom;verticalAlign=top;html=1;outlineConnect=0;" vertex="1" parent="1">
          <mxGeometry x="3251" y="-1307.75" width="30" height="60" as="geometry" />
        </mxCell>
        <mxCell id="Ij1GyV5aHeRKL5o0O3o6-282" value="Actor" style="shape=umlActor;verticalLabelPosition=bottom;verticalAlign=top;html=1;outlineConnect=0;" vertex="1" parent="1">
          <mxGeometry x="3261" y="-1297.75" width="30" height="60" as="geometry" />
        </mxCell>
        <mxCell id="Ij1GyV5aHeRKL5o0O3o6-283" value="Actor" style="shape=umlActor;verticalLabelPosition=bottom;verticalAlign=top;html=1;outlineConnect=0;" vertex="1" parent="1">
          <mxGeometry x="3271" y="-1287.75" width="30" height="60" as="geometry" />
        </mxCell>
        <mxCell id="Ij1GyV5aHeRKL5o0O3o6-284" value="Actor" style="shape=umlActor;verticalLabelPosition=bottom;verticalAlign=top;html=1;outlineConnect=0;" vertex="1" parent="1">
          <mxGeometry x="3281" y="-1277.75" width="30" height="60" as="geometry" />
        </mxCell>
        <mxCell id="Ij1GyV5aHeRKL5o0O3o6-285" value="Actor" style="shape=umlActor;verticalLabelPosition=bottom;verticalAlign=top;html=1;outlineConnect=0;" vertex="1" parent="1">
          <mxGeometry x="3291" y="-1267.75" width="30" height="60" as="geometry" />
        </mxCell>
        <mxCell id="Ij1GyV5aHeRKL5o0O3o6-286" value="Actor" style="shape=umlActor;verticalLabelPosition=bottom;verticalAlign=top;html=1;outlineConnect=0;" vertex="1" parent="1">
          <mxGeometry x="3301" y="-1257.75" width="30" height="60" as="geometry" />
        </mxCell>
        <mxCell id="Ij1GyV5aHeRKL5o0O3o6-287" value="Actor" style="shape=umlActor;verticalLabelPosition=bottom;verticalAlign=top;html=1;outlineConnect=0;" vertex="1" parent="1">
          <mxGeometry x="3311" y="-1247.75" width="30" height="60" as="geometry" />
        </mxCell>
        <mxCell id="Ij1GyV5aHeRKL5o0O3o6-288" value="Actor" style="shape=umlActor;verticalLabelPosition=bottom;verticalAlign=top;html=1;outlineConnect=0;" vertex="1" parent="1">
          <mxGeometry x="3321" y="-1237.75" width="30" height="60" as="geometry" />
        </mxCell>
        <mxCell id="Ij1GyV5aHeRKL5o0O3o6-289" value="Actor" style="shape=umlActor;verticalLabelPosition=bottom;verticalAlign=top;html=1;outlineConnect=0;" vertex="1" parent="1">
          <mxGeometry x="3146" y="-1337.75" width="30" height="60" as="geometry" />
        </mxCell>
        <mxCell id="Ij1GyV5aHeRKL5o0O3o6-290" value="Actor" style="shape=umlActor;verticalLabelPosition=bottom;verticalAlign=top;html=1;outlineConnect=0;" vertex="1" parent="1">
          <mxGeometry x="3156" y="-1327.75" width="30" height="60" as="geometry" />
        </mxCell>
        <mxCell id="Ij1GyV5aHeRKL5o0O3o6-291" value="Actor" style="shape=umlActor;verticalLabelPosition=bottom;verticalAlign=top;html=1;outlineConnect=0;" vertex="1" parent="1">
          <mxGeometry x="3166" y="-1317.75" width="30" height="60" as="geometry" />
        </mxCell>
        <mxCell id="Ij1GyV5aHeRKL5o0O3o6-292" value="Actor" style="shape=umlActor;verticalLabelPosition=bottom;verticalAlign=top;html=1;outlineConnect=0;" vertex="1" parent="1">
          <mxGeometry x="3176" y="-1307.75" width="30" height="60" as="geometry" />
        </mxCell>
        <mxCell id="Ij1GyV5aHeRKL5o0O3o6-293" value="Actor" style="shape=umlActor;verticalLabelPosition=bottom;verticalAlign=top;html=1;outlineConnect=0;" vertex="1" parent="1">
          <mxGeometry x="3186" y="-1297.75" width="30" height="60" as="geometry" />
        </mxCell>
        <mxCell id="Ij1GyV5aHeRKL5o0O3o6-294" value="Actor" style="shape=umlActor;verticalLabelPosition=bottom;verticalAlign=top;html=1;outlineConnect=0;" vertex="1" parent="1">
          <mxGeometry x="3196" y="-1287.75" width="30" height="60" as="geometry" />
        </mxCell>
        <mxCell id="Ij1GyV5aHeRKL5o0O3o6-295" value="Actor" style="shape=umlActor;verticalLabelPosition=bottom;verticalAlign=top;html=1;outlineConnect=0;" vertex="1" parent="1">
          <mxGeometry x="3206" y="-1277.75" width="30" height="60" as="geometry" />
        </mxCell>
        <mxCell id="Ij1GyV5aHeRKL5o0O3o6-296" value="Actor" style="shape=umlActor;verticalLabelPosition=bottom;verticalAlign=top;html=1;outlineConnect=0;" vertex="1" parent="1">
          <mxGeometry x="3216" y="-1267.75" width="30" height="60" as="geometry" />
        </mxCell>
        <mxCell id="Ij1GyV5aHeRKL5o0O3o6-297" value="Actor" style="shape=umlActor;verticalLabelPosition=bottom;verticalAlign=top;html=1;outlineConnect=0;" vertex="1" parent="1">
          <mxGeometry x="3226" y="-1257.75" width="30" height="60" as="geometry" />
        </mxCell>
        <mxCell id="Ij1GyV5aHeRKL5o0O3o6-298" value="Actor" style="shape=umlActor;verticalLabelPosition=bottom;verticalAlign=top;html=1;outlineConnect=0;" vertex="1" parent="1">
          <mxGeometry x="3236" y="-1247.75" width="30" height="60" as="geometry" />
        </mxCell>
        <mxCell id="Ij1GyV5aHeRKL5o0O3o6-299" value="Actor" style="shape=umlActor;verticalLabelPosition=bottom;verticalAlign=top;html=1;outlineConnect=0;" vertex="1" parent="1">
          <mxGeometry x="3246" y="-1237.75" width="30" height="60" as="geometry" />
        </mxCell>
        <mxCell id="Ij1GyV5aHeRKL5o0O3o6-300" value="Actor" style="shape=umlActor;verticalLabelPosition=bottom;verticalAlign=top;html=1;outlineConnect=0;" vertex="1" parent="1">
          <mxGeometry x="3256" y="-1227.75" width="30" height="60" as="geometry" />
        </mxCell>
        <mxCell id="Ij1GyV5aHeRKL5o0O3o6-301" value="Actor" style="shape=umlActor;verticalLabelPosition=bottom;verticalAlign=top;html=1;outlineConnect=0;" vertex="1" parent="1">
          <mxGeometry x="3266" y="-1217.75" width="30" height="60" as="geometry" />
        </mxCell>
        <mxCell id="Ij1GyV5aHeRKL5o0O3o6-302" value="Actor" style="shape=umlActor;verticalLabelPosition=bottom;verticalAlign=top;html=1;outlineConnect=0;" vertex="1" parent="1">
          <mxGeometry x="3276" y="-1207.75" width="30" height="60" as="geometry" />
        </mxCell>
        <mxCell id="Ij1GyV5aHeRKL5o0O3o6-303" value="Actor" style="shape=umlActor;verticalLabelPosition=bottom;verticalAlign=top;html=1;outlineConnect=0;" vertex="1" parent="1">
          <mxGeometry x="3136" y="-1347.75" width="30" height="60" as="geometry" />
        </mxCell>
        <mxCell id="Ij1GyV5aHeRKL5o0O3o6-304" value="Actor" style="shape=umlActor;verticalLabelPosition=bottom;verticalAlign=top;html=1;outlineConnect=0;" vertex="1" parent="1">
          <mxGeometry x="3146" y="-1337.75" width="30" height="60" as="geometry" />
        </mxCell>
        <mxCell id="Ij1GyV5aHeRKL5o0O3o6-305" value="Actor" style="shape=umlActor;verticalLabelPosition=bottom;verticalAlign=top;html=1;outlineConnect=0;" vertex="1" parent="1">
          <mxGeometry x="3156" y="-1327.75" width="30" height="60" as="geometry" />
        </mxCell>
        <mxCell id="Ij1GyV5aHeRKL5o0O3o6-306" value="Actor" style="shape=umlActor;verticalLabelPosition=bottom;verticalAlign=top;html=1;outlineConnect=0;" vertex="1" parent="1">
          <mxGeometry x="3166" y="-1317.75" width="30" height="60" as="geometry" />
        </mxCell>
        <mxCell id="Ij1GyV5aHeRKL5o0O3o6-307" value="Actor" style="shape=umlActor;verticalLabelPosition=bottom;verticalAlign=top;html=1;outlineConnect=0;" vertex="1" parent="1">
          <mxGeometry x="3176" y="-1307.75" width="30" height="60" as="geometry" />
        </mxCell>
        <mxCell id="Ij1GyV5aHeRKL5o0O3o6-308" value="Actor" style="shape=umlActor;verticalLabelPosition=bottom;verticalAlign=top;html=1;outlineConnect=0;" vertex="1" parent="1">
          <mxGeometry x="3186" y="-1297.75" width="30" height="60" as="geometry" />
        </mxCell>
        <mxCell id="Ij1GyV5aHeRKL5o0O3o6-309" value="Actor" style="shape=umlActor;verticalLabelPosition=bottom;verticalAlign=top;html=1;outlineConnect=0;" vertex="1" parent="1">
          <mxGeometry x="3196" y="-1287.75" width="30" height="60" as="geometry" />
        </mxCell>
        <mxCell id="Ij1GyV5aHeRKL5o0O3o6-310" value="Actor" style="shape=umlActor;verticalLabelPosition=bottom;verticalAlign=top;html=1;outlineConnect=0;" vertex="1" parent="1">
          <mxGeometry x="3206" y="-1277.75" width="30" height="60" as="geometry" />
        </mxCell>
        <mxCell id="Ij1GyV5aHeRKL5o0O3o6-311" value="Actor" style="shape=umlActor;verticalLabelPosition=bottom;verticalAlign=top;html=1;outlineConnect=0;" vertex="1" parent="1">
          <mxGeometry x="3216" y="-1267.75" width="30" height="60" as="geometry" />
        </mxCell>
        <mxCell id="Ij1GyV5aHeRKL5o0O3o6-312" value="Actor" style="shape=umlActor;verticalLabelPosition=bottom;verticalAlign=top;html=1;outlineConnect=0;" vertex="1" parent="1">
          <mxGeometry x="3226" y="-1257.75" width="30" height="60" as="geometry" />
        </mxCell>
        <mxCell id="Ij1GyV5aHeRKL5o0O3o6-313" value="Actor" style="shape=umlActor;verticalLabelPosition=bottom;verticalAlign=top;html=1;outlineConnect=0;" vertex="1" parent="1">
          <mxGeometry x="3236" y="-1247.75" width="30" height="60" as="geometry" />
        </mxCell>
        <mxCell id="Ij1GyV5aHeRKL5o0O3o6-314" value="Actor" style="shape=umlActor;verticalLabelPosition=bottom;verticalAlign=top;html=1;outlineConnect=0;" vertex="1" parent="1">
          <mxGeometry x="3246" y="-1237.75" width="30" height="60" as="geometry" />
        </mxCell>
        <mxCell id="Ij1GyV5aHeRKL5o0O3o6-315" value="Actor" style="shape=umlActor;verticalLabelPosition=bottom;verticalAlign=top;html=1;outlineConnect=0;" vertex="1" parent="1">
          <mxGeometry x="3256" y="-1227.75" width="30" height="60" as="geometry" />
        </mxCell>
        <mxCell id="Ij1GyV5aHeRKL5o0O3o6-316" value="Actor" style="shape=umlActor;verticalLabelPosition=bottom;verticalAlign=top;html=1;outlineConnect=0;" vertex="1" parent="1">
          <mxGeometry x="3266" y="-1217.75" width="30" height="60" as="geometry" />
        </mxCell>
        <mxCell id="Ij1GyV5aHeRKL5o0O3o6-317" value="Actor" style="shape=umlActor;verticalLabelPosition=bottom;verticalAlign=top;html=1;outlineConnect=0;" vertex="1" parent="1">
          <mxGeometry x="3201" y="-1357.75" width="30" height="60" as="geometry" />
        </mxCell>
        <mxCell id="Ij1GyV5aHeRKL5o0O3o6-318" value="Actor" style="shape=umlActor;verticalLabelPosition=bottom;verticalAlign=top;html=1;outlineConnect=0;" vertex="1" parent="1">
          <mxGeometry x="3211" y="-1347.75" width="30" height="60" as="geometry" />
        </mxCell>
        <mxCell id="Ij1GyV5aHeRKL5o0O3o6-319" value="Actor" style="shape=umlActor;verticalLabelPosition=bottom;verticalAlign=top;html=1;outlineConnect=0;" vertex="1" parent="1">
          <mxGeometry x="3221" y="-1337.75" width="30" height="60" as="geometry" />
        </mxCell>
        <mxCell id="Ij1GyV5aHeRKL5o0O3o6-320" value="Actor" style="shape=umlActor;verticalLabelPosition=bottom;verticalAlign=top;html=1;outlineConnect=0;" vertex="1" parent="1">
          <mxGeometry x="3231" y="-1327.75" width="30" height="60" as="geometry" />
        </mxCell>
        <mxCell id="Ij1GyV5aHeRKL5o0O3o6-321" value="Actor" style="shape=umlActor;verticalLabelPosition=bottom;verticalAlign=top;html=1;outlineConnect=0;" vertex="1" parent="1">
          <mxGeometry x="3241" y="-1317.75" width="30" height="60" as="geometry" />
        </mxCell>
        <mxCell id="Ij1GyV5aHeRKL5o0O3o6-322" value="Actor" style="shape=umlActor;verticalLabelPosition=bottom;verticalAlign=top;html=1;outlineConnect=0;" vertex="1" parent="1">
          <mxGeometry x="3251" y="-1307.75" width="30" height="60" as="geometry" />
        </mxCell>
        <mxCell id="Ij1GyV5aHeRKL5o0O3o6-323" value="Actor" style="shape=umlActor;verticalLabelPosition=bottom;verticalAlign=top;html=1;outlineConnect=0;" vertex="1" parent="1">
          <mxGeometry x="3261" y="-1297.75" width="30" height="60" as="geometry" />
        </mxCell>
        <mxCell id="Ij1GyV5aHeRKL5o0O3o6-324" value="Actor" style="shape=umlActor;verticalLabelPosition=bottom;verticalAlign=top;html=1;outlineConnect=0;" vertex="1" parent="1">
          <mxGeometry x="3271" y="-1287.75" width="30" height="60" as="geometry" />
        </mxCell>
        <mxCell id="Ij1GyV5aHeRKL5o0O3o6-325" value="Actor" style="shape=umlActor;verticalLabelPosition=bottom;verticalAlign=top;html=1;outlineConnect=0;" vertex="1" parent="1">
          <mxGeometry x="3281" y="-1277.75" width="30" height="60" as="geometry" />
        </mxCell>
        <mxCell id="Ij1GyV5aHeRKL5o0O3o6-326" value="Actor" style="shape=umlActor;verticalLabelPosition=bottom;verticalAlign=top;html=1;outlineConnect=0;" vertex="1" parent="1">
          <mxGeometry x="3291" y="-1267.75" width="30" height="60" as="geometry" />
        </mxCell>
        <mxCell id="Ij1GyV5aHeRKL5o0O3o6-327" value="Actor" style="shape=umlActor;verticalLabelPosition=bottom;verticalAlign=top;html=1;outlineConnect=0;" vertex="1" parent="1">
          <mxGeometry x="3301" y="-1257.75" width="30" height="60" as="geometry" />
        </mxCell>
        <mxCell id="Ij1GyV5aHeRKL5o0O3o6-328" value="Actor" style="shape=umlActor;verticalLabelPosition=bottom;verticalAlign=top;html=1;outlineConnect=0;" vertex="1" parent="1">
          <mxGeometry x="3311" y="-1247.75" width="30" height="60" as="geometry" />
        </mxCell>
        <mxCell id="Ij1GyV5aHeRKL5o0O3o6-329" value="Actor" style="shape=umlActor;verticalLabelPosition=bottom;verticalAlign=top;html=1;outlineConnect=0;" vertex="1" parent="1">
          <mxGeometry x="3321" y="-1237.75" width="30" height="60" as="geometry" />
        </mxCell>
        <mxCell id="Ij1GyV5aHeRKL5o0O3o6-330" value="Actor" style="shape=umlActor;verticalLabelPosition=bottom;verticalAlign=top;html=1;outlineConnect=0;" vertex="1" parent="1">
          <mxGeometry x="3331" y="-1227.75" width="30" height="60" as="geometry" />
        </mxCell>
        <mxCell id="Ij1GyV5aHeRKL5o0O3o6-331" value="Actor" style="shape=umlActor;verticalLabelPosition=bottom;verticalAlign=top;html=1;outlineConnect=0;" vertex="1" parent="1">
          <mxGeometry x="3156" y="-1327.75" width="30" height="60" as="geometry" />
        </mxCell>
        <mxCell id="Ij1GyV5aHeRKL5o0O3o6-332" value="Actor" style="shape=umlActor;verticalLabelPosition=bottom;verticalAlign=top;html=1;outlineConnect=0;" vertex="1" parent="1">
          <mxGeometry x="3166" y="-1317.75" width="30" height="60" as="geometry" />
        </mxCell>
        <mxCell id="Ij1GyV5aHeRKL5o0O3o6-333" value="Actor" style="shape=umlActor;verticalLabelPosition=bottom;verticalAlign=top;html=1;outlineConnect=0;" vertex="1" parent="1">
          <mxGeometry x="3176" y="-1307.75" width="30" height="60" as="geometry" />
        </mxCell>
        <mxCell id="Ij1GyV5aHeRKL5o0O3o6-334" value="Actor" style="shape=umlActor;verticalLabelPosition=bottom;verticalAlign=top;html=1;outlineConnect=0;" vertex="1" parent="1">
          <mxGeometry x="3186" y="-1297.75" width="30" height="60" as="geometry" />
        </mxCell>
        <mxCell id="Ij1GyV5aHeRKL5o0O3o6-335" value="Actor" style="shape=umlActor;verticalLabelPosition=bottom;verticalAlign=top;html=1;outlineConnect=0;" vertex="1" parent="1">
          <mxGeometry x="3196" y="-1287.75" width="30" height="60" as="geometry" />
        </mxCell>
        <mxCell id="Ij1GyV5aHeRKL5o0O3o6-336" value="Actor" style="shape=umlActor;verticalLabelPosition=bottom;verticalAlign=top;html=1;outlineConnect=0;" vertex="1" parent="1">
          <mxGeometry x="3206" y="-1277.75" width="30" height="60" as="geometry" />
        </mxCell>
        <mxCell id="Ij1GyV5aHeRKL5o0O3o6-337" value="Actor" style="shape=umlActor;verticalLabelPosition=bottom;verticalAlign=top;html=1;outlineConnect=0;" vertex="1" parent="1">
          <mxGeometry x="3216" y="-1267.75" width="30" height="60" as="geometry" />
        </mxCell>
        <mxCell id="Ij1GyV5aHeRKL5o0O3o6-338" value="Actor" style="shape=umlActor;verticalLabelPosition=bottom;verticalAlign=top;html=1;outlineConnect=0;" vertex="1" parent="1">
          <mxGeometry x="3226" y="-1257.75" width="30" height="60" as="geometry" />
        </mxCell>
        <mxCell id="Ij1GyV5aHeRKL5o0O3o6-339" value="Actor" style="shape=umlActor;verticalLabelPosition=bottom;verticalAlign=top;html=1;outlineConnect=0;" vertex="1" parent="1">
          <mxGeometry x="3236" y="-1247.75" width="30" height="60" as="geometry" />
        </mxCell>
        <mxCell id="Ij1GyV5aHeRKL5o0O3o6-340" value="Actor" style="shape=umlActor;verticalLabelPosition=bottom;verticalAlign=top;html=1;outlineConnect=0;" vertex="1" parent="1">
          <mxGeometry x="3246" y="-1237.75" width="30" height="60" as="geometry" />
        </mxCell>
        <mxCell id="Ij1GyV5aHeRKL5o0O3o6-341" value="Actor" style="shape=umlActor;verticalLabelPosition=bottom;verticalAlign=top;html=1;outlineConnect=0;" vertex="1" parent="1">
          <mxGeometry x="3256" y="-1227.75" width="30" height="60" as="geometry" />
        </mxCell>
        <mxCell id="Ij1GyV5aHeRKL5o0O3o6-342" value="Actor" style="shape=umlActor;verticalLabelPosition=bottom;verticalAlign=top;html=1;outlineConnect=0;" vertex="1" parent="1">
          <mxGeometry x="3266" y="-1217.75" width="30" height="60" as="geometry" />
        </mxCell>
        <mxCell id="Ij1GyV5aHeRKL5o0O3o6-343" value="Actor" style="shape=umlActor;verticalLabelPosition=bottom;verticalAlign=top;html=1;outlineConnect=0;" vertex="1" parent="1">
          <mxGeometry x="3276" y="-1207.75" width="30" height="60" as="geometry" />
        </mxCell>
        <mxCell id="Ij1GyV5aHeRKL5o0O3o6-344" value="Actor" style="shape=umlActor;verticalLabelPosition=bottom;verticalAlign=top;html=1;outlineConnect=0;" vertex="1" parent="1">
          <mxGeometry x="3286" y="-1197.75" width="30" height="60" as="geometry" />
        </mxCell>
        <mxCell id="Ij1GyV5aHeRKL5o0O3o6-351" style="edgeStyle=none;curved=1;rounded=0;orthogonalLoop=1;jettySize=auto;html=1;fontSize=12;startSize=8;endSize=8;" edge="1" parent="1" source="Ij1GyV5aHeRKL5o0O3o6-346" target="Ij1GyV5aHeRKL5o0O3o6-350">
          <mxGeometry relative="1" as="geometry" />
        </mxCell>
        <mxCell id="Ij1GyV5aHeRKL5o0O3o6-346" value="ENTENDER LOS DOCUEMENTOS" style="rounded=1;whiteSpace=wrap;html=1;" vertex="1" parent="1">
          <mxGeometry x="2084" y="-1538" width="147" height="109" as="geometry" />
        </mxCell>
        <mxCell id="Ij1GyV5aHeRKL5o0O3o6-348" style="edgeStyle=none;curved=1;rounded=0;orthogonalLoop=1;jettySize=auto;html=1;entryX=0.714;entryY=0.025;entryDx=0;entryDy=0;entryPerimeter=0;fontSize=12;startSize=8;endSize=8;" edge="1" parent="1" source="Ij1GyV5aHeRKL5o0O3o6-346" target="Ij1GyV5aHeRKL5o0O3o6-54">
          <mxGeometry relative="1" as="geometry" />
        </mxCell>
        <mxCell id="Ij1GyV5aHeRKL5o0O3o6-350" value="REFERENCIAS" style="rounded=1;whiteSpace=wrap;html=1;" vertex="1" parent="1">
          <mxGeometry x="2260" y="-1317.75" width="120" height="60" as="geometry" />
        </mxCell>
        <mxCell id="Ij1GyV5aHeRKL5o0O3o6-352" value="PERFORMACE" style="rounded=1;whiteSpace=wrap;html=1;" vertex="1" parent="1">
          <mxGeometry x="1207" y="-1632" width="120" height="60" as="geometry" />
        </mxCell>
      </root>
    </mxGraphModel>
  </diagram>
</mxfile>
